<?xml version="1.0" encoding="utf-8" standalone="no"?>
<svg xmlns:xlink="http://www.w3.org/1999/xlink" width="612.164375pt" height="326.134219pt" viewBox="0 0 612.164375 326.134219" xmlns="http://www.w3.org/2000/svg" version="1.1">
 <defs>
  <style type="text/css">*{stroke-linejoin: round; stroke-linecap: butt}</style>
 </defs>
 <g id="figure_1">
  <g id="patch_1">
   <path d="M 0 326.134219 
L 612.164375 326.134219 
L 612.164375 0 
L 0 0 
z
" style="fill: #ffffff"/>
  </g>
  <g id="axes_1">
   <g id="patch_2">
    <path d="M 46.964375 284.4 
L 604.964375 284.4 
L 604.964375 7.2 
L 46.964375 7.2 
z
" style="fill: #ffffff"/>
   </g>
   <g id="matplotlib.axis_1">
    <g id="xtick_1">
     <g id="text_1">
      <!-- 12a -->
      <g style="fill: #262626" transform="translate(93.588828 301.773594) scale(0.11 -0.11)">
       <defs>
        <path id="ArialMT-31" d="M 2384 0 
L 1822 0 
L 1822 3584 
Q 1619 3391 1289 3197 
Q 959 3003 697 2906 
L 697 3450 
Q 1169 3672 1522 3987 
Q 1875 4303 2022 4600 
L 2384 4600 
L 2384 0 
z
" transform="scale(0.015625)"/>
        <path id="ArialMT-32" d="M 3222 541 
L 3222 0 
L 194 0 
Q 188 203 259 391 
Q 375 700 629 1000 
Q 884 1300 1366 1694 
Q 2113 2306 2375 2664 
Q 2638 3022 2638 3341 
Q 2638 3675 2398 3904 
Q 2159 4134 1775 4134 
Q 1369 4134 1125 3890 
Q 881 3647 878 3216 
L 300 3275 
Q 359 3922 746 4261 
Q 1134 4600 1788 4600 
Q 2447 4600 2831 4234 
Q 3216 3869 3216 3328 
Q 3216 3053 3103 2787 
Q 2991 2522 2730 2228 
Q 2469 1934 1863 1422 
Q 1356 997 1212 845 
Q 1069 694 975 541 
L 3222 541 
z
" transform="scale(0.015625)"/>
        <path id="ArialMT-61" d="M 2588 409 
Q 2275 144 1986 34 
Q 1697 -75 1366 -75 
Q 819 -75 525 192 
Q 231 459 231 875 
Q 231 1119 342 1320 
Q 453 1522 633 1644 
Q 813 1766 1038 1828 
Q 1203 1872 1538 1913 
Q 2219 1994 2541 2106 
Q 2544 2222 2544 2253 
Q 2544 2597 2384 2738 
Q 2169 2928 1744 2928 
Q 1347 2928 1158 2789 
Q 969 2650 878 2297 
L 328 2372 
Q 403 2725 575 2942 
Q 747 3159 1072 3276 
Q 1397 3394 1825 3394 
Q 2250 3394 2515 3294 
Q 2781 3194 2906 3042 
Q 3031 2891 3081 2659 
Q 3109 2516 3109 2141 
L 3109 1391 
Q 3109 606 3145 398 
Q 3181 191 3288 0 
L 2700 0 
Q 2613 175 2588 409 
z
M 2541 1666 
Q 2234 1541 1622 1453 
Q 1275 1403 1131 1340 
Q 988 1278 909 1158 
Q 831 1038 831 891 
Q 831 666 1001 516 
Q 1172 366 1500 366 
Q 1825 366 2078 508 
Q 2331 650 2450 897 
Q 2541 1088 2541 1459 
L 2541 1666 
z
" transform="scale(0.015625)"/>
       </defs>
       <use xlink:href="#ArialMT-31"/>
       <use xlink:href="#ArialMT-32" transform="translate(55.615234 0)"/>
       <use xlink:href="#ArialMT-61" transform="translate(111.230469 0)"/>
      </g>
     </g>
    </g>
    <g id="xtick_2">
     <g id="text_2">
      <!-- 12b -->
      <g style="fill: #262626" transform="translate(205.188828 301.773594) scale(0.11 -0.11)">
       <defs>
        <path id="ArialMT-62" d="M 941 0 
L 419 0 
L 419 4581 
L 981 4581 
L 981 2947 
Q 1338 3394 1891 3394 
Q 2197 3394 2470 3270 
Q 2744 3147 2920 2923 
Q 3097 2700 3197 2384 
Q 3297 2069 3297 1709 
Q 3297 856 2875 390 
Q 2453 -75 1863 -75 
Q 1275 -75 941 416 
L 941 0 
z
M 934 1684 
Q 934 1088 1097 822 
Q 1363 388 1816 388 
Q 2184 388 2453 708 
Q 2722 1028 2722 1663 
Q 2722 2313 2464 2622 
Q 2206 2931 1841 2931 
Q 1472 2931 1203 2611 
Q 934 2291 934 1684 
z
" transform="scale(0.015625)"/>
       </defs>
       <use xlink:href="#ArialMT-31"/>
       <use xlink:href="#ArialMT-32" transform="translate(55.615234 0)"/>
       <use xlink:href="#ArialMT-62" transform="translate(111.230469 0)"/>
      </g>
     </g>
    </g>
    <g id="xtick_3">
     <g id="text_3">
      <!-- 12c -->
      <g style="fill: #262626" transform="translate(317.097344 301.773594) scale(0.11 -0.11)">
       <defs>
        <path id="ArialMT-63" d="M 2588 1216 
L 3141 1144 
Q 3050 572 2676 248 
Q 2303 -75 1759 -75 
Q 1078 -75 664 370 
Q 250 816 250 1647 
Q 250 2184 428 2587 
Q 606 2991 970 3192 
Q 1334 3394 1763 3394 
Q 2303 3394 2647 3120 
Q 2991 2847 3088 2344 
L 2541 2259 
Q 2463 2594 2264 2762 
Q 2066 2931 1784 2931 
Q 1359 2931 1093 2626 
Q 828 2322 828 1663 
Q 828 994 1084 691 
Q 1341 388 1753 388 
Q 2084 388 2306 591 
Q 2528 794 2588 1216 
z
" transform="scale(0.015625)"/>
       </defs>
       <use xlink:href="#ArialMT-31"/>
       <use xlink:href="#ArialMT-32" transform="translate(55.615234 0)"/>
       <use xlink:href="#ArialMT-63" transform="translate(111.230469 0)"/>
      </g>
     </g>
    </g>
    <g id="xtick_4">
     <g id="text_4">
      <!-- 12d -->
      <g style="fill: #262626" transform="translate(428.388828 301.773594) scale(0.11 -0.11)">
       <defs>
        <path id="ArialMT-64" d="M 2575 0 
L 2575 419 
Q 2259 -75 1647 -75 
Q 1250 -75 917 144 
Q 584 363 401 755 
Q 219 1147 219 1656 
Q 219 2153 384 2558 
Q 550 2963 881 3178 
Q 1213 3394 1622 3394 
Q 1922 3394 2156 3267 
Q 2391 3141 2538 2938 
L 2538 4581 
L 3097 4581 
L 3097 0 
L 2575 0 
z
M 797 1656 
Q 797 1019 1065 703 
Q 1334 388 1700 388 
Q 2069 388 2326 689 
Q 2584 991 2584 1609 
Q 2584 2291 2321 2609 
Q 2059 2928 1675 2928 
Q 1300 2928 1048 2622 
Q 797 2316 797 1656 
z
" transform="scale(0.015625)"/>
       </defs>
       <use xlink:href="#ArialMT-31"/>
       <use xlink:href="#ArialMT-32" transform="translate(55.615234 0)"/>
       <use xlink:href="#ArialMT-64" transform="translate(111.230469 0)"/>
      </g>
     </g>
    </g>
    <g id="xtick_5">
     <g id="text_5">
      <!-- 12e -->
      <g style="fill: #262626" transform="translate(539.988828 301.773594) scale(0.11 -0.11)">
       <defs>
        <path id="ArialMT-65" d="M 2694 1069 
L 3275 997 
Q 3138 488 2766 206 
Q 2394 -75 1816 -75 
Q 1088 -75 661 373 
Q 234 822 234 1631 
Q 234 2469 665 2931 
Q 1097 3394 1784 3394 
Q 2450 3394 2872 2941 
Q 3294 2488 3294 1666 
Q 3294 1616 3291 1516 
L 816 1516 
Q 847 969 1125 678 
Q 1403 388 1819 388 
Q 2128 388 2347 550 
Q 2566 713 2694 1069 
z
M 847 1978 
L 2700 1978 
Q 2663 2397 2488 2606 
Q 2219 2931 1791 2931 
Q 1403 2931 1139 2672 
Q 875 2413 847 1978 
z
" transform="scale(0.015625)"/>
       </defs>
       <use xlink:href="#ArialMT-31"/>
       <use xlink:href="#ArialMT-32" transform="translate(55.615234 0)"/>
       <use xlink:href="#ArialMT-65" transform="translate(111.230469 0)"/>
      </g>
     </g>
    </g>
    <g id="text_6">
     <!-- item -->
     <g style="fill: #262626" transform="translate(314.63 316.549219) scale(0.12 -0.12)">
      <defs>
       <path id="ArialMT-69" d="M 425 3934 
L 425 4581 
L 988 4581 
L 988 3934 
L 425 3934 
z
M 425 0 
L 425 3319 
L 988 3319 
L 988 0 
L 425 0 
z
" transform="scale(0.015625)"/>
       <path id="ArialMT-74" d="M 1650 503 
L 1731 6 
Q 1494 -44 1306 -44 
Q 1000 -44 831 53 
Q 663 150 594 308 
Q 525 466 525 972 
L 525 2881 
L 113 2881 
L 113 3319 
L 525 3319 
L 525 4141 
L 1084 4478 
L 1084 3319 
L 1650 3319 
L 1650 2881 
L 1084 2881 
L 1084 941 
Q 1084 700 1114 631 
Q 1144 563 1211 522 
Q 1278 481 1403 481 
Q 1497 481 1650 503 
z
" transform="scale(0.015625)"/>
       <path id="ArialMT-6d" d="M 422 0 
L 422 3319 
L 925 3319 
L 925 2853 
Q 1081 3097 1340 3245 
Q 1600 3394 1931 3394 
Q 2300 3394 2536 3241 
Q 2772 3088 2869 2813 
Q 3263 3394 3894 3394 
Q 4388 3394 4653 3120 
Q 4919 2847 4919 2278 
L 4919 0 
L 4359 0 
L 4359 2091 
Q 4359 2428 4304 2576 
Q 4250 2725 4106 2815 
Q 3963 2906 3769 2906 
Q 3419 2906 3187 2673 
Q 2956 2441 2956 1928 
L 2956 0 
L 2394 0 
L 2394 2156 
Q 2394 2531 2256 2718 
Q 2119 2906 1806 2906 
Q 1569 2906 1367 2781 
Q 1166 2656 1075 2415 
Q 984 2175 984 1722 
L 984 0 
L 422 0 
z
" transform="scale(0.015625)"/>
      </defs>
      <use xlink:href="#ArialMT-69"/>
      <use xlink:href="#ArialMT-74" transform="translate(22.216797 0)"/>
      <use xlink:href="#ArialMT-65" transform="translate(50 0)"/>
      <use xlink:href="#ArialMT-6d" transform="translate(105.615234 0)"/>
     </g>
    </g>
   </g>
   <g id="matplotlib.axis_2">
    <g id="ytick_1">
     <g id="line2d_1">
      <path d="M 46.964375 271.8 
L 604.964375 271.8 
" clip-path="url(#p19f85aa056)" style="fill: none; stroke: #cccccc; stroke-linecap: round"/>
     </g>
     <g id="text_7">
      <!-- 1.0 -->
      <g style="fill: #262626" transform="translate(22.174375 275.736797) scale(0.11 -0.11)">
       <defs>
        <path id="ArialMT-2e" d="M 581 0 
L 581 641 
L 1222 641 
L 1222 0 
L 581 0 
z
" transform="scale(0.015625)"/>
        <path id="ArialMT-30" d="M 266 2259 
Q 266 3072 433 3567 
Q 600 4063 929 4331 
Q 1259 4600 1759 4600 
Q 2128 4600 2406 4451 
Q 2684 4303 2865 4023 
Q 3047 3744 3150 3342 
Q 3253 2941 3253 2259 
Q 3253 1453 3087 958 
Q 2922 463 2592 192 
Q 2263 -78 1759 -78 
Q 1097 -78 719 397 
Q 266 969 266 2259 
z
M 844 2259 
Q 844 1131 1108 757 
Q 1372 384 1759 384 
Q 2147 384 2411 759 
Q 2675 1134 2675 2259 
Q 2675 3391 2411 3762 
Q 2147 4134 1753 4134 
Q 1366 4134 1134 3806 
Q 844 3388 844 2259 
z
" transform="scale(0.015625)"/>
       </defs>
       <use xlink:href="#ArialMT-31"/>
       <use xlink:href="#ArialMT-2e" transform="translate(55.615234 0)"/>
       <use xlink:href="#ArialMT-30" transform="translate(83.398438 0)"/>
      </g>
     </g>
    </g>
    <g id="ytick_2">
     <g id="line2d_2">
      <path d="M 46.964375 240.3 
L 604.964375 240.3 
" clip-path="url(#p19f85aa056)" style="fill: none; stroke: #cccccc; stroke-linecap: round"/>
     </g>
     <g id="text_8">
      <!-- 1.5 -->
      <g style="fill: #262626" transform="translate(22.174375 244.236797) scale(0.11 -0.11)">
       <defs>
        <path id="ArialMT-35" d="M 266 1200 
L 856 1250 
Q 922 819 1161 601 
Q 1400 384 1738 384 
Q 2144 384 2425 690 
Q 2706 997 2706 1503 
Q 2706 1984 2436 2262 
Q 2166 2541 1728 2541 
Q 1456 2541 1237 2417 
Q 1019 2294 894 2097 
L 366 2166 
L 809 4519 
L 3088 4519 
L 3088 3981 
L 1259 3981 
L 1013 2750 
Q 1425 3038 1878 3038 
Q 2478 3038 2890 2622 
Q 3303 2206 3303 1553 
Q 3303 931 2941 478 
Q 2500 -78 1738 -78 
Q 1113 -78 717 272 
Q 322 622 266 1200 
z
" transform="scale(0.015625)"/>
       </defs>
       <use xlink:href="#ArialMT-31"/>
       <use xlink:href="#ArialMT-2e" transform="translate(55.615234 0)"/>
       <use xlink:href="#ArialMT-35" transform="translate(83.398438 0)"/>
      </g>
     </g>
    </g>
    <g id="ytick_3">
     <g id="line2d_3">
      <path d="M 46.964375 208.8 
L 604.964375 208.8 
" clip-path="url(#p19f85aa056)" style="fill: none; stroke: #cccccc; stroke-linecap: round"/>
     </g>
     <g id="text_9">
      <!-- 2.0 -->
      <g style="fill: #262626" transform="translate(22.174375 212.736797) scale(0.11 -0.11)">
       <use xlink:href="#ArialMT-32"/>
       <use xlink:href="#ArialMT-2e" transform="translate(55.615234 0)"/>
       <use xlink:href="#ArialMT-30" transform="translate(83.398438 0)"/>
      </g>
     </g>
    </g>
    <g id="ytick_4">
     <g id="line2d_4">
      <path d="M 46.964375 177.3 
L 604.964375 177.3 
" clip-path="url(#p19f85aa056)" style="fill: none; stroke: #cccccc; stroke-linecap: round"/>
     </g>
     <g id="text_10">
      <!-- 2.5 -->
      <g style="fill: #262626" transform="translate(22.174375 181.236797) scale(0.11 -0.11)">
       <use xlink:href="#ArialMT-32"/>
       <use xlink:href="#ArialMT-2e" transform="translate(55.615234 0)"/>
       <use xlink:href="#ArialMT-35" transform="translate(83.398438 0)"/>
      </g>
     </g>
    </g>
    <g id="ytick_5">
     <g id="line2d_5">
      <path d="M 46.964375 145.8 
L 604.964375 145.8 
" clip-path="url(#p19f85aa056)" style="fill: none; stroke: #cccccc; stroke-linecap: round"/>
     </g>
     <g id="text_11">
      <!-- 3.0 -->
      <g style="fill: #262626" transform="translate(22.174375 149.736797) scale(0.11 -0.11)">
       <defs>
        <path id="ArialMT-33" d="M 269 1209 
L 831 1284 
Q 928 806 1161 595 
Q 1394 384 1728 384 
Q 2125 384 2398 659 
Q 2672 934 2672 1341 
Q 2672 1728 2419 1979 
Q 2166 2231 1775 2231 
Q 1616 2231 1378 2169 
L 1441 2663 
Q 1497 2656 1531 2656 
Q 1891 2656 2178 2843 
Q 2466 3031 2466 3422 
Q 2466 3731 2256 3934 
Q 2047 4138 1716 4138 
Q 1388 4138 1169 3931 
Q 950 3725 888 3313 
L 325 3413 
Q 428 3978 793 4289 
Q 1159 4600 1703 4600 
Q 2078 4600 2393 4439 
Q 2709 4278 2876 4000 
Q 3044 3722 3044 3409 
Q 3044 3113 2884 2869 
Q 2725 2625 2413 2481 
Q 2819 2388 3044 2092 
Q 3269 1797 3269 1353 
Q 3269 753 2831 336 
Q 2394 -81 1725 -81 
Q 1122 -81 723 278 
Q 325 638 269 1209 
z
" transform="scale(0.015625)"/>
       </defs>
       <use xlink:href="#ArialMT-33"/>
       <use xlink:href="#ArialMT-2e" transform="translate(55.615234 0)"/>
       <use xlink:href="#ArialMT-30" transform="translate(83.398438 0)"/>
      </g>
     </g>
    </g>
    <g id="ytick_6">
     <g id="line2d_6">
      <path d="M 46.964375 114.3 
L 604.964375 114.3 
" clip-path="url(#p19f85aa056)" style="fill: none; stroke: #cccccc; stroke-linecap: round"/>
     </g>
     <g id="text_12">
      <!-- 3.5 -->
      <g style="fill: #262626" transform="translate(22.174375 118.236797) scale(0.11 -0.11)">
       <use xlink:href="#ArialMT-33"/>
       <use xlink:href="#ArialMT-2e" transform="translate(55.615234 0)"/>
       <use xlink:href="#ArialMT-35" transform="translate(83.398438 0)"/>
      </g>
     </g>
    </g>
    <g id="ytick_7">
     <g id="line2d_7">
      <path d="M 46.964375 82.8 
L 604.964375 82.8 
" clip-path="url(#p19f85aa056)" style="fill: none; stroke: #cccccc; stroke-linecap: round"/>
     </g>
     <g id="text_13">
      <!-- 4.0 -->
      <g style="fill: #262626" transform="translate(22.174375 86.736797) scale(0.11 -0.11)">
       <defs>
        <path id="ArialMT-34" d="M 2069 0 
L 2069 1097 
L 81 1097 
L 81 1613 
L 2172 4581 
L 2631 4581 
L 2631 1613 
L 3250 1613 
L 3250 1097 
L 2631 1097 
L 2631 0 
L 2069 0 
z
M 2069 1613 
L 2069 3678 
L 634 1613 
L 2069 1613 
z
" transform="scale(0.015625)"/>
       </defs>
       <use xlink:href="#ArialMT-34"/>
       <use xlink:href="#ArialMT-2e" transform="translate(55.615234 0)"/>
       <use xlink:href="#ArialMT-30" transform="translate(83.398438 0)"/>
      </g>
     </g>
    </g>
    <g id="ytick_8">
     <g id="line2d_8">
      <path d="M 46.964375 51.3 
L 604.964375 51.3 
" clip-path="url(#p19f85aa056)" style="fill: none; stroke: #cccccc; stroke-linecap: round"/>
     </g>
     <g id="text_14">
      <!-- 4.5 -->
      <g style="fill: #262626" transform="translate(22.174375 55.236797) scale(0.11 -0.11)">
       <use xlink:href="#ArialMT-34"/>
       <use xlink:href="#ArialMT-2e" transform="translate(55.615234 0)"/>
       <use xlink:href="#ArialMT-35" transform="translate(83.398438 0)"/>
      </g>
     </g>
    </g>
    <g id="ytick_9">
     <g id="line2d_9">
      <path d="M 46.964375 19.8 
L 604.964375 19.8 
" clip-path="url(#p19f85aa056)" style="fill: none; stroke: #cccccc; stroke-linecap: round"/>
     </g>
     <g id="text_15">
      <!-- 5.0 -->
      <g style="fill: #262626" transform="translate(22.174375 23.736797) scale(0.11 -0.11)">
       <use xlink:href="#ArialMT-35"/>
       <use xlink:href="#ArialMT-2e" transform="translate(55.615234 0)"/>
       <use xlink:href="#ArialMT-30" transform="translate(83.398438 0)"/>
      </g>
     </g>
    </g>
    <g id="text_16">
     <!-- Reverse-scored attitude Likert -->
     <g style="fill: #262626" transform="translate(15.789375 225.830625) rotate(-90) scale(0.12 -0.12)">
      <defs>
       <path id="ArialMT-52" d="M 503 0 
L 503 4581 
L 2534 4581 
Q 3147 4581 3465 4457 
Q 3784 4334 3975 4021 
Q 4166 3709 4166 3331 
Q 4166 2844 3850 2509 
Q 3534 2175 2875 2084 
Q 3116 1969 3241 1856 
Q 3506 1613 3744 1247 
L 4541 0 
L 3778 0 
L 3172 953 
Q 2906 1366 2734 1584 
Q 2563 1803 2427 1890 
Q 2291 1978 2150 2013 
Q 2047 2034 1813 2034 
L 1109 2034 
L 1109 0 
L 503 0 
z
M 1109 2559 
L 2413 2559 
Q 2828 2559 3062 2645 
Q 3297 2731 3419 2920 
Q 3541 3109 3541 3331 
Q 3541 3656 3305 3865 
Q 3069 4075 2559 4075 
L 1109 4075 
L 1109 2559 
z
" transform="scale(0.015625)"/>
       <path id="ArialMT-76" d="M 1344 0 
L 81 3319 
L 675 3319 
L 1388 1331 
Q 1503 1009 1600 663 
Q 1675 925 1809 1294 
L 2547 3319 
L 3125 3319 
L 1869 0 
L 1344 0 
z
" transform="scale(0.015625)"/>
       <path id="ArialMT-72" d="M 416 0 
L 416 3319 
L 922 3319 
L 922 2816 
Q 1116 3169 1280 3281 
Q 1444 3394 1641 3394 
Q 1925 3394 2219 3213 
L 2025 2691 
Q 1819 2813 1613 2813 
Q 1428 2813 1281 2702 
Q 1134 2591 1072 2394 
Q 978 2094 978 1738 
L 978 0 
L 416 0 
z
" transform="scale(0.015625)"/>
       <path id="ArialMT-73" d="M 197 991 
L 753 1078 
Q 800 744 1014 566 
Q 1228 388 1613 388 
Q 2000 388 2187 545 
Q 2375 703 2375 916 
Q 2375 1106 2209 1216 
Q 2094 1291 1634 1406 
Q 1016 1563 777 1677 
Q 538 1791 414 1992 
Q 291 2194 291 2438 
Q 291 2659 392 2848 
Q 494 3038 669 3163 
Q 800 3259 1026 3326 
Q 1253 3394 1513 3394 
Q 1903 3394 2198 3281 
Q 2494 3169 2634 2976 
Q 2775 2784 2828 2463 
L 2278 2388 
Q 2241 2644 2061 2787 
Q 1881 2931 1553 2931 
Q 1166 2931 1000 2803 
Q 834 2675 834 2503 
Q 834 2394 903 2306 
Q 972 2216 1119 2156 
Q 1203 2125 1616 2013 
Q 2213 1853 2448 1751 
Q 2684 1650 2818 1456 
Q 2953 1263 2953 975 
Q 2953 694 2789 445 
Q 2625 197 2315 61 
Q 2006 -75 1616 -75 
Q 969 -75 630 194 
Q 291 463 197 991 
z
" transform="scale(0.015625)"/>
       <path id="ArialMT-2d" d="M 203 1375 
L 203 1941 
L 1931 1941 
L 1931 1375 
L 203 1375 
z
" transform="scale(0.015625)"/>
       <path id="ArialMT-6f" d="M 213 1659 
Q 213 2581 725 3025 
Q 1153 3394 1769 3394 
Q 2453 3394 2887 2945 
Q 3322 2497 3322 1706 
Q 3322 1066 3130 698 
Q 2938 331 2570 128 
Q 2203 -75 1769 -75 
Q 1072 -75 642 372 
Q 213 819 213 1659 
z
M 791 1659 
Q 791 1022 1069 705 
Q 1347 388 1769 388 
Q 2188 388 2466 706 
Q 2744 1025 2744 1678 
Q 2744 2294 2464 2611 
Q 2184 2928 1769 2928 
Q 1347 2928 1069 2612 
Q 791 2297 791 1659 
z
" transform="scale(0.015625)"/>
       <path id="ArialMT-20" transform="scale(0.015625)"/>
       <path id="ArialMT-75" d="M 2597 0 
L 2597 488 
Q 2209 -75 1544 -75 
Q 1250 -75 995 37 
Q 741 150 617 320 
Q 494 491 444 738 
Q 409 903 409 1263 
L 409 3319 
L 972 3319 
L 972 1478 
Q 972 1038 1006 884 
Q 1059 663 1231 536 
Q 1403 409 1656 409 
Q 1909 409 2131 539 
Q 2353 669 2445 892 
Q 2538 1116 2538 1541 
L 2538 3319 
L 3100 3319 
L 3100 0 
L 2597 0 
z
" transform="scale(0.015625)"/>
       <path id="ArialMT-4c" d="M 469 0 
L 469 4581 
L 1075 4581 
L 1075 541 
L 3331 541 
L 3331 0 
L 469 0 
z
" transform="scale(0.015625)"/>
       <path id="ArialMT-6b" d="M 425 0 
L 425 4581 
L 988 4581 
L 988 1969 
L 2319 3319 
L 3047 3319 
L 1778 2088 
L 3175 0 
L 2481 0 
L 1384 1697 
L 988 1316 
L 988 0 
L 425 0 
z
" transform="scale(0.015625)"/>
      </defs>
      <use xlink:href="#ArialMT-52"/>
      <use xlink:href="#ArialMT-65" transform="translate(72.216797 0)"/>
      <use xlink:href="#ArialMT-76" transform="translate(127.832031 0)"/>
      <use xlink:href="#ArialMT-65" transform="translate(177.832031 0)"/>
      <use xlink:href="#ArialMT-72" transform="translate(233.447266 0)"/>
      <use xlink:href="#ArialMT-73" transform="translate(266.748047 0)"/>
      <use xlink:href="#ArialMT-65" transform="translate(316.748047 0)"/>
      <use xlink:href="#ArialMT-2d" transform="translate(372.363281 0)"/>
      <use xlink:href="#ArialMT-73" transform="translate(405.664062 0)"/>
      <use xlink:href="#ArialMT-63" transform="translate(455.664062 0)"/>
      <use xlink:href="#ArialMT-6f" transform="translate(505.664062 0)"/>
      <use xlink:href="#ArialMT-72" transform="translate(561.279297 0)"/>
      <use xlink:href="#ArialMT-65" transform="translate(594.580078 0)"/>
      <use xlink:href="#ArialMT-64" transform="translate(650.195312 0)"/>
      <use xlink:href="#ArialMT-20" transform="translate(705.810547 0)"/>
      <use xlink:href="#ArialMT-61" transform="translate(733.59375 0)"/>
      <use xlink:href="#ArialMT-74" transform="translate(789.208984 0)"/>
      <use xlink:href="#ArialMT-74" transform="translate(816.992188 0)"/>
      <use xlink:href="#ArialMT-69" transform="translate(844.775391 0)"/>
      <use xlink:href="#ArialMT-74" transform="translate(866.992188 0)"/>
      <use xlink:href="#ArialMT-75" transform="translate(894.775391 0)"/>
      <use xlink:href="#ArialMT-64" transform="translate(950.390625 0)"/>
      <use xlink:href="#ArialMT-65" transform="translate(1006.005859 0)"/>
      <use xlink:href="#ArialMT-20" transform="translate(1061.621094 0)"/>
      <use xlink:href="#ArialMT-4c" transform="translate(1089.404297 0)"/>
      <use xlink:href="#ArialMT-69" transform="translate(1145.019531 0)"/>
      <use xlink:href="#ArialMT-6b" transform="translate(1167.236328 0)"/>
      <use xlink:href="#ArialMT-65" transform="translate(1217.236328 0)"/>
      <use xlink:href="#ArialMT-72" transform="translate(1272.851562 0)"/>
      <use xlink:href="#ArialMT-74" transform="translate(1306.152344 0)"/>
     </g>
    </g>
   </g>
   <g id="FillBetweenPolyCollection_1">
    <path d="M 102.764375 340.026233 
L 102.50437 340.026233 
L 102.437573 336.10247 
L 102.358529 332.178708 
L 102.266262 328.254946 
L 102.159976 324.331184 
L 102.039082 320.407421 
L 101.903198 316.483659 
L 101.752119 312.559897 
L 101.585757 308.636135 
L 101.404048 304.712372 
L 101.206827 300.78861 
L 100.993696 296.864848 
L 100.763884 292.941085 
L 100.516134 289.017323 
L 100.248634 285.093561 
L 99.959006 281.169799 
L 99.644384 277.246036 
L 99.301583 273.322274 
L 98.927354 269.398512 
L 98.518723 265.474749 
L 98.073363 261.550987 
L 97.589989 257.627225 
L 97.068703 253.703463 
L 96.511242 249.7797 
L 95.921097 245.855938 
L 95.303442 241.932176 
L 94.664876 238.008414 
L 94.012971 234.084651 
L 93.355673 230.160889 
L 92.700596 226.237127 
L 92.054309 222.313364 
L 91.421691 218.389602 
L 90.805458 214.46584 
L 90.205937 210.542078 
L 89.621148 206.618315 
L 89.047199 202.694553 
L 88.478991 198.770791 
L 87.911155 194.847028 
L 87.339122 190.923266 
L 86.760188 186.999504 
L 86.174447 183.075742 
L 85.585443 179.151979 
L 85.000445 175.228217 
L 84.43027 171.304455 
L 83.888659 167.380693 
L 83.391234 163.45693 
L 82.954172 159.533168 
L 82.592704 155.609406 
L 82.31965 151.685643 
L 82.144149 147.761881 
L 82.070739 143.838119 
L 82.098915 139.914357 
L 82.223209 135.990594 
L 82.433797 132.066832 
L 82.71755 128.14307 
L 83.059403 124.219307 
L 83.443884 120.295545 
L 83.856594 116.371783 
L 84.285499 112.448021 
L 84.721853 108.524258 
L 85.160679 104.600496 
L 85.600769 100.676734 
L 86.044218 96.752972 
L 86.495592 92.829209 
L 86.960842 88.905447 
L 87.446131 84.981685 
L 87.956709 81.057922 
L 88.495995 77.13416 
L 89.064953 73.210398 
L 89.661829 69.286636 
L 90.282251 65.362873 
L 90.919664 61.439111 
L 91.566008 57.515349 
L 92.212536 53.591586 
L 92.850674 49.667824 
L 93.472793 45.744062 
L 94.072818 41.8203 
L 94.646615 37.896537 
L 95.192116 33.972775 
L 95.709212 30.049013 
L 96.19943 26.125251 
L 96.665473 22.201488 
L 97.110675 18.277726 
L 97.538467 14.353964 
L 97.951889 10.430201 
L 98.353222 6.506439 
L 98.743761 2.582677 
L 99.123728 -1.341085 
L 99.492335 -5.264848 
L 99.847956 -9.18861 
L 100.188378 -13.112372 
L 100.511091 -17.036135 
L 100.813587 -20.959897 
L 101.093623 -24.883659 
L 101.349435 -28.807421 
L 101.579878 -32.731184 
L 101.784498 -36.654946 
L 101.963539 -40.578708 
L 102.117885 -44.50247 
L 102.248964 -48.426233 
L 102.764375 -48.426233 
L 102.764375 -48.426233 
L 102.764375 -44.50247 
L 102.764375 -40.578708 
L 102.764375 -36.654946 
L 102.764375 -32.731184 
L 102.764375 -28.807421 
L 102.764375 -24.883659 
L 102.764375 -20.959897 
L 102.764375 -17.036135 
L 102.764375 -13.112372 
L 102.764375 -9.18861 
L 102.764375 -5.264848 
L 102.764375 -1.341085 
L 102.764375 2.582677 
L 102.764375 6.506439 
L 102.764375 10.430201 
L 102.764375 14.353964 
L 102.764375 18.277726 
L 102.764375 22.201488 
L 102.764375 26.125251 
L 102.764375 30.049013 
L 102.764375 33.972775 
L 102.764375 37.896537 
L 102.764375 41.8203 
L 102.764375 45.744062 
L 102.764375 49.667824 
L 102.764375 53.591586 
L 102.764375 57.515349 
L 102.764375 61.439111 
L 102.764375 65.362873 
L 102.764375 69.286636 
L 102.764375 73.210398 
L 102.764375 77.13416 
L 102.764375 81.057922 
L 102.764375 84.981685 
L 102.764375 88.905447 
L 102.764375 92.829209 
L 102.764375 96.752972 
L 102.764375 100.676734 
L 102.764375 104.600496 
L 102.764375 108.524258 
L 102.764375 112.448021 
L 102.764375 116.371783 
L 102.764375 120.295545 
L 102.764375 124.219307 
L 102.764375 128.14307 
L 102.764375 132.066832 
L 102.764375 135.990594 
L 102.764375 139.914357 
L 102.764375 143.838119 
L 102.764375 147.761881 
L 102.764375 151.685643 
L 102.764375 155.609406 
L 102.764375 159.533168 
L 102.764375 163.45693 
L 102.764375 167.380693 
L 102.764375 171.304455 
L 102.764375 175.228217 
L 102.764375 179.151979 
L 102.764375 183.075742 
L 102.764375 186.999504 
L 102.764375 190.923266 
L 102.764375 194.847028 
L 102.764375 198.770791 
L 102.764375 202.694553 
L 102.764375 206.618315 
L 102.764375 210.542078 
L 102.764375 214.46584 
L 102.764375 218.389602 
L 102.764375 222.313364 
L 102.764375 226.237127 
L 102.764375 230.160889 
L 102.764375 234.084651 
L 102.764375 238.008414 
L 102.764375 241.932176 
L 102.764375 245.855938 
L 102.764375 249.7797 
L 102.764375 253.703463 
L 102.764375 257.627225 
L 102.764375 261.550987 
L 102.764375 265.474749 
L 102.764375 269.398512 
L 102.764375 273.322274 
L 102.764375 277.246036 
L 102.764375 281.169799 
L 102.764375 285.093561 
L 102.764375 289.017323 
L 102.764375 292.941085 
L 102.764375 296.864848 
L 102.764375 300.78861 
L 102.764375 304.712372 
L 102.764375 308.636135 
L 102.764375 312.559897 
L 102.764375 316.483659 
L 102.764375 320.407421 
L 102.764375 324.331184 
L 102.764375 328.254946 
L 102.764375 332.178708 
L 102.764375 336.10247 
L 102.764375 340.026233 
z
" clip-path="url(#p19f85aa056)" style="fill: #176d9c; stroke: #363636; stroke-width: 1.25"/>
   </g>
   <g id="FillBetweenPolyCollection_2">
    <path d="M 103.546086 284.863988 
L 102.764375 284.863988 
L 102.764375 281.418251 
L 102.764375 277.972514 
L 102.764375 274.526776 
L 102.764375 271.081039 
L 102.764375 267.635302 
L 102.764375 264.189565 
L 102.764375 260.743828 
L 102.764375 257.298091 
L 102.764375 253.852354 
L 102.764375 250.406617 
L 102.764375 246.960879 
L 102.764375 243.515142 
L 102.764375 240.069405 
L 102.764375 236.623668 
L 102.764375 233.177931 
L 102.764375 229.732194 
L 102.764375 226.286457 
L 102.764375 222.84072 
L 102.764375 219.394982 
L 102.764375 215.949245 
L 102.764375 212.503508 
L 102.764375 209.057771 
L 102.764375 205.612034 
L 102.764375 202.166297 
L 102.764375 198.72056 
L 102.764375 195.274822 
L 102.764375 191.829085 
L 102.764375 188.383348 
L 102.764375 184.937611 
L 102.764375 181.491874 
L 102.764375 178.046137 
L 102.764375 174.6004 
L 102.764375 171.154663 
L 102.764375 167.708925 
L 102.764375 164.263188 
L 102.764375 160.817451 
L 102.764375 157.371714 
L 102.764375 153.925977 
L 102.764375 150.48024 
L 102.764375 147.034503 
L 102.764375 143.588766 
L 102.764375 140.143028 
L 102.764375 136.697291 
L 102.764375 133.251554 
L 102.764375 129.805817 
L 102.764375 126.36008 
L 102.764375 122.914343 
L 102.764375 119.468606 
L 102.764375 116.022869 
L 102.764375 112.577131 
L 102.764375 109.131394 
L 102.764375 105.685657 
L 102.764375 102.23992 
L 102.764375 98.794183 
L 102.764375 95.348446 
L 102.764375 91.902709 
L 102.764375 88.456972 
L 102.764375 85.011234 
L 102.764375 81.565497 
L 102.764375 78.11976 
L 102.764375 74.674023 
L 102.764375 71.228286 
L 102.764375 67.782549 
L 102.764375 64.336812 
L 102.764375 60.891075 
L 102.764375 57.445337 
L 102.764375 53.9996 
L 102.764375 50.553863 
L 102.764375 47.108126 
L 102.764375 43.662389 
L 102.764375 40.216652 
L 102.764375 36.770915 
L 102.764375 33.325178 
L 102.764375 29.87944 
L 102.764375 26.433703 
L 102.764375 22.987966 
L 102.764375 19.542229 
L 102.764375 16.096492 
L 102.764375 12.650755 
L 102.764375 9.205018 
L 102.764375 5.75928 
L 102.764375 2.313543 
L 102.764375 -1.132194 
L 102.764375 -4.577931 
L 102.764375 -8.023668 
L 102.764375 -11.469405 
L 102.764375 -14.915142 
L 102.764375 -18.360879 
L 102.764375 -21.806617 
L 102.764375 -25.252354 
L 102.764375 -28.698091 
L 102.764375 -32.143828 
L 102.764375 -35.589565 
L 102.764375 -39.035302 
L 102.764375 -42.481039 
L 102.764375 -45.926776 
L 102.764375 -49.372514 
L 102.764375 -52.818251 
L 102.764375 -56.263988 
L 104.844151 -56.263988 
L 104.844151 -56.263988 
L 105.249869 -52.818251 
L 105.710979 -49.372514 
L 106.229795 -45.926776 
L 106.807615 -42.481039 
L 107.444517 -39.035302 
L 108.139191 -35.589565 
L 108.888798 -32.143828 
L 109.688883 -28.698091 
L 110.533355 -25.252354 
L 111.414527 -21.806617 
L 112.323239 -18.360879 
L 113.249058 -14.915142 
L 114.180546 -11.469405 
L 115.1056 -8.023668 
L 116.011834 -4.577931 
L 116.887003 -1.132194 
L 117.719425 2.313543 
L 118.4984 5.75928 
L 119.214587 9.205018 
L 119.860315 12.650755 
L 120.429824 16.096492 
L 120.919397 19.542229 
L 121.327399 22.987966 
L 121.654204 26.433703 
L 121.902027 29.87944 
L 122.074663 33.325178 
L 122.177167 36.770915 
L 122.215484 40.216652 
L 122.196066 43.662389 
L 122.1255 47.108126 
L 122.010167 50.553863 
L 121.855966 53.9996 
L 121.668104 57.445337 
L 121.450976 60.891075 
L 121.208125 64.336812 
L 120.942284 67.782549 
L 120.655484 71.228286 
L 120.34922 74.674023 
L 120.024643 78.11976 
L 119.682763 81.565497 
L 119.324643 85.011234 
L 118.951569 88.456972 
L 118.565169 91.902709 
L 118.167487 95.348446 
L 117.761003 98.794183 
L 117.348599 102.23992 
L 116.933477 105.685657 
L 116.51905 109.131394 
L 116.108807 112.577131 
L 115.70617 116.022869 
L 115.314358 119.468606 
L 114.936275 122.914343 
L 114.574407 126.36008 
L 114.230769 129.805817 
L 113.906868 133.251554 
L 113.603698 136.697291 
L 113.321766 140.143028 
L 113.06112 143.588766 
L 112.821397 147.034503 
L 112.601869 150.48024 
L 112.401478 153.925977 
L 112.218872 157.371714 
L 112.052419 160.817451 
L 111.900221 164.263188 
L 111.760114 167.708925 
L 111.629671 171.154663 
L 111.506208 174.6004 
L 111.386803 178.046137 
L 111.268322 181.491874 
L 111.147478 184.937611 
L 111.020902 188.383348 
L 110.88524 191.829085 
L 110.737262 195.274822 
L 110.573986 198.72056 
L 110.392812 202.166297 
L 110.191635 205.612034 
L 109.968967 209.057771 
L 109.724018 212.503508 
L 109.456758 215.949245 
L 109.167942 219.394982 
L 108.859101 222.84072 
L 108.532492 226.286457 
L 108.191016 229.732194 
L 107.838104 233.177931 
L 107.477585 236.623668 
L 107.11353 240.069405 
L 106.750104 243.515142 
L 106.391402 246.960879 
L 106.041316 250.406617 
L 105.703401 253.852354 
L 105.380779 257.298091 
L 105.07606 260.743828 
L 104.791294 264.189565 
L 104.527953 267.635302 
L 104.286934 271.081039 
L 104.068591 274.526776 
L 103.872781 277.972514 
L 103.698926 281.418251 
L 103.546086 284.863988 
z
" clip-path="url(#p19f85aa056)" style="fill: #c38820; stroke: #363636; stroke-width: 1.25"/>
   </g>
   <g id="FillBetweenPolyCollection_3">
    <defs>
     <path id="maab5e0761c" d="M 214.364375 -139.971035 
L 213.504744 -139.971035 
L 213.312714 -142.05918 
L 213.091469 -144.147325 
L 212.840052 -146.235471 
L 212.558363 -148.323616 
L 212.24732 -150.411761 
L 211.908998 -152.499906 
L 211.54672 -154.588051 
L 211.165085 -156.676196 
L 210.76992 -158.764341 
L 210.368151 -160.852486 
L 209.967574 -162.940631 
L 209.576537 -165.028777 
L 209.203542 -167.116922 
L 208.856762 -169.205067 
L 208.543517 -171.293212 
L 208.269707 -173.381357 
L 208.039257 -175.469502 
L 207.853575 -177.557647 
L 207.711085 -179.645792 
L 207.606837 -181.733938 
L 207.532241 -183.822083 
L 207.474938 -185.910228 
L 207.418833 -187.998373 
L 207.344298 -190.086518 
L 207.228567 -192.174663 
L 207.046315 -194.262808 
L 206.770424 -196.350953 
L 206.372934 -198.439099 
L 205.826163 -200.527244 
L 205.103966 -202.615389 
L 204.183108 -204.703534 
L 203.044703 -206.791679 
L 201.675657 -208.879824 
L 200.070046 -210.967969 
L 198.230348 -213.056114 
L 196.168432 -215.14426 
L 193.906215 -217.232405 
L 191.475903 -219.32055 
L 188.919733 -221.408695 
L 186.289165 -223.49684 
L 183.643517 -225.584985 
L 181.048035 -227.67313 
L 178.571482 -229.761275 
L 176.283326 -231.849421 
L 174.250683 -233.937566 
L 172.535173 -236.025711 
L 171.189885 -238.113856 
L 170.256644 -240.202001 
L 169.763752 -242.290146 
L 169.724375 -244.378291 
L 170.13567 -246.466436 
L 170.978734 -248.554582 
L 172.219369 -250.642727 
L 173.809618 -252.730872 
L 175.689974 -254.819017 
L 177.792117 -256.907162 
L 180.042015 -258.995307 
L 182.363189 -261.083452 
L 184.679984 -263.171597 
L 186.920645 -265.259743 
L 189.020085 -267.347888 
L 190.92221 -269.436033 
L 192.58173 -271.524178 
L 193.965428 -273.612323 
L 195.052849 -275.700468 
L 195.836454 -277.788613 
L 196.321253 -279.876758 
L 196.523984 -281.964904 
L 196.471886 -284.053049 
L 196.201139 -286.141194 
L 195.755039 -288.229339 
L 195.181969 -290.317484 
L 194.533266 -292.405629 
L 193.861032 -294.493774 
L 193.215991 -296.581919 
L 192.645465 -298.670065 
L 192.191555 -300.75821 
L 191.889598 -302.846355 
L 191.766975 -304.9345 
L 191.842315 -307.022645 
L 192.125131 -309.11079 
L 192.615901 -311.198935 
L 193.306572 -313.28708 
L 194.18145 -315.375226 
L 195.218409 -317.463371 
L 196.390344 -319.551516 
L 197.666757 -321.639661 
L 199.015393 -323.727806 
L 200.403822 -325.815951 
L 201.800876 -327.904096 
L 203.177879 -329.992241 
L 204.509612 -332.080386 
L 205.774993 -334.168532 
L 206.957454 -336.256677 
L 208.045045 -338.344822 
L 209.030291 -340.432967 
L 209.909835 -342.521112 
L 210.68394 -344.609257 
L 211.355889 -346.697402 
L 214.364375 -346.697402 
L 214.364375 -346.697402 
L 214.364375 -344.609257 
L 214.364375 -342.521112 
L 214.364375 -340.432967 
L 214.364375 -338.344822 
L 214.364375 -336.256677 
L 214.364375 -334.168532 
L 214.364375 -332.080386 
L 214.364375 -329.992241 
L 214.364375 -327.904096 
L 214.364375 -325.815951 
L 214.364375 -323.727806 
L 214.364375 -321.639661 
L 214.364375 -319.551516 
L 214.364375 -317.463371 
L 214.364375 -315.375226 
L 214.364375 -313.28708 
L 214.364375 -311.198935 
L 214.364375 -309.11079 
L 214.364375 -307.022645 
L 214.364375 -304.9345 
L 214.364375 -302.846355 
L 214.364375 -300.75821 
L 214.364375 -298.670065 
L 214.364375 -296.581919 
L 214.364375 -294.493774 
L 214.364375 -292.405629 
L 214.364375 -290.317484 
L 214.364375 -288.229339 
L 214.364375 -286.141194 
L 214.364375 -284.053049 
L 214.364375 -281.964904 
L 214.364375 -279.876758 
L 214.364375 -277.788613 
L 214.364375 -275.700468 
L 214.364375 -273.612323 
L 214.364375 -271.524178 
L 214.364375 -269.436033 
L 214.364375 -267.347888 
L 214.364375 -265.259743 
L 214.364375 -263.171597 
L 214.364375 -261.083452 
L 214.364375 -258.995307 
L 214.364375 -256.907162 
L 214.364375 -254.819017 
L 214.364375 -252.730872 
L 214.364375 -250.642727 
L 214.364375 -248.554582 
L 214.364375 -246.466436 
L 214.364375 -244.378291 
L 214.364375 -242.290146 
L 214.364375 -240.202001 
L 214.364375 -238.113856 
L 214.364375 -236.025711 
L 214.364375 -233.937566 
L 214.364375 -231.849421 
L 214.364375 -229.761275 
L 214.364375 -227.67313 
L 214.364375 -225.584985 
L 214.364375 -223.49684 
L 214.364375 -221.408695 
L 214.364375 -219.32055 
L 214.364375 -217.232405 
L 214.364375 -215.14426 
L 214.364375 -213.056114 
L 214.364375 -210.967969 
L 214.364375 -208.879824 
L 214.364375 -206.791679 
L 214.364375 -204.703534 
L 214.364375 -202.615389 
L 214.364375 -200.527244 
L 214.364375 -198.439099 
L 214.364375 -196.350953 
L 214.364375 -194.262808 
L 214.364375 -192.174663 
L 214.364375 -190.086518 
L 214.364375 -187.998373 
L 214.364375 -185.910228 
L 214.364375 -183.822083 
L 214.364375 -181.733938 
L 214.364375 -179.645792 
L 214.364375 -177.557647 
L 214.364375 -175.469502 
L 214.364375 -173.381357 
L 214.364375 -171.293212 
L 214.364375 -169.205067 
L 214.364375 -167.116922 
L 214.364375 -165.028777 
L 214.364375 -162.940631 
L 214.364375 -160.852486 
L 214.364375 -158.764341 
L 214.364375 -156.676196 
L 214.364375 -154.588051 
L 214.364375 -152.499906 
L 214.364375 -150.411761 
L 214.364375 -148.323616 
L 214.364375 -146.235471 
L 214.364375 -144.147325 
L 214.364375 -142.05918 
L 214.364375 -139.971035 
z
" style="stroke: #363636; stroke-width: 1.25"/>
    </defs>
    <g clip-path="url(#p19f85aa056)">
     <use xlink:href="#maab5e0761c" x="0" y="326.134219" style="fill: #176d9c; stroke: #363636; stroke-width: 1.25"/>
    </g>
   </g>
   <g id="FillBetweenPolyCollection_4">
    <defs>
     <path id="m471e166204" d="M 214.713836 -61.085892 
L 214.364375 -61.085892 
L 214.364375 -64.131313 
L 214.364375 -67.176733 
L 214.364375 -70.222154 
L 214.364375 -73.267575 
L 214.364375 -76.312996 
L 214.364375 -79.358416 
L 214.364375 -82.403837 
L 214.364375 -85.449258 
L 214.364375 -88.494679 
L 214.364375 -91.540099 
L 214.364375 -94.58552 
L 214.364375 -97.630941 
L 214.364375 -100.676362 
L 214.364375 -103.721782 
L 214.364375 -106.767203 
L 214.364375 -109.812624 
L 214.364375 -112.858045 
L 214.364375 -115.903465 
L 214.364375 -118.948886 
L 214.364375 -121.994307 
L 214.364375 -125.039728 
L 214.364375 -128.085148 
L 214.364375 -131.130569 
L 214.364375 -134.17599 
L 214.364375 -137.221411 
L 214.364375 -140.266831 
L 214.364375 -143.312252 
L 214.364375 -146.357673 
L 214.364375 -149.403093 
L 214.364375 -152.448514 
L 214.364375 -155.493935 
L 214.364375 -158.539356 
L 214.364375 -161.584776 
L 214.364375 -164.630197 
L 214.364375 -167.675618 
L 214.364375 -170.721039 
L 214.364375 -173.766459 
L 214.364375 -176.81188 
L 214.364375 -179.857301 
L 214.364375 -182.902722 
L 214.364375 -185.948142 
L 214.364375 -188.993563 
L 214.364375 -192.038984 
L 214.364375 -195.084405 
L 214.364375 -198.129825 
L 214.364375 -201.175246 
L 214.364375 -204.220667 
L 214.364375 -207.266088 
L 214.364375 -210.311508 
L 214.364375 -213.356929 
L 214.364375 -216.40235 
L 214.364375 -219.447771 
L 214.364375 -222.493191 
L 214.364375 -225.538612 
L 214.364375 -228.584033 
L 214.364375 -231.629454 
L 214.364375 -234.674874 
L 214.364375 -237.720295 
L 214.364375 -240.765716 
L 214.364375 -243.811137 
L 214.364375 -246.856557 
L 214.364375 -249.901978 
L 214.364375 -252.947399 
L 214.364375 -255.99282 
L 214.364375 -259.03824 
L 214.364375 -262.083661 
L 214.364375 -265.129082 
L 214.364375 -268.174503 
L 214.364375 -271.219923 
L 214.364375 -274.265344 
L 214.364375 -277.310765 
L 214.364375 -280.356185 
L 214.364375 -283.401606 
L 214.364375 -286.447027 
L 214.364375 -289.492448 
L 214.364375 -292.537868 
L 214.364375 -295.583289 
L 214.364375 -298.62871 
L 214.364375 -301.674131 
L 214.364375 -304.719551 
L 214.364375 -307.764972 
L 214.364375 -310.810393 
L 214.364375 -313.855814 
L 214.364375 -316.901234 
L 214.364375 -319.946655 
L 214.364375 -322.992076 
L 214.364375 -326.037497 
L 214.364375 -329.082917 
L 214.364375 -332.128338 
L 214.364375 -335.173759 
L 214.364375 -338.21918 
L 214.364375 -341.2646 
L 214.364375 -344.310021 
L 214.364375 -347.355442 
L 214.364375 -350.400863 
L 214.364375 -353.446283 
L 214.364375 -356.491704 
L 214.364375 -359.537125 
L 214.364375 -362.582546 
L 219.951241 -362.582546 
L 219.951241 -362.582546 
L 221.261861 -359.537125 
L 222.780745 -356.491704 
L 224.514496 -353.446283 
L 226.462871 -350.400863 
L 228.617398 -347.355442 
L 230.960251 -344.310021 
L 233.463509 -341.2646 
L 236.088933 -338.21918 
L 238.788354 -335.173759 
L 241.504744 -332.128338 
L 244.17397 -329.082917 
L 246.727209 -326.037497 
L 249.093897 -322.992076 
L 251.205054 -319.946655 
L 252.996784 -316.901234 
L 254.413701 -313.855814 
L 255.412012 -310.810393 
L 255.962054 -307.764972 
L 256.050033 -304.719551 
L 255.67886 -301.674131 
L 254.867977 -298.62871 
L 253.652205 -295.583289 
L 252.079675 -292.537868 
L 250.209027 -289.492448 
L 248.106076 -286.447027 
L 245.840206 -283.401606 
L 243.480762 -280.356185 
L 241.093684 -277.310765 
L 238.738611 -274.265344 
L 236.466618 -271.219923 
L 234.318697 -268.174503 
L 232.325008 -265.129082 
L 230.504891 -262.083661 
L 228.86754 -259.03824 
L 227.413212 -255.99282 
L 226.134831 -252.947399 
L 225.019799 -249.901978 
L 224.051869 -246.856557 
L 223.212915 -243.811137 
L 222.484505 -240.765716 
L 221.849164 -237.720295 
L 221.291302 -234.674874 
L 220.797781 -231.629454 
L 220.358147 -228.584033 
L 219.964562 -225.538612 
L 219.611508 -222.493191 
L 219.295336 -219.447771 
L 219.013717 -216.40235 
L 218.765092 -213.356929 
L 218.548164 -210.311508 
L 218.361477 -207.266088 
L 218.20313 -204.220667 
L 218.070618 -201.175246 
L 217.960817 -198.129825 
L 217.870085 -195.084405 
L 217.79446 -192.038984 
L 217.729921 -188.993563 
L 217.672667 -185.948142 
L 217.61939 -182.902722 
L 217.567507 -179.857301 
L 217.515319 -176.81188 
L 217.462084 -173.766459 
L 217.407999 -170.721039 
L 217.354093 -167.675618 
L 217.302037 -164.630197 
L 217.253895 -161.584776 
L 217.211843 -158.539356 
L 217.177871 -155.493935 
L 217.153512 -152.448514 
L 217.139612 -149.403093 
L 217.136161 -146.357673 
L 217.142212 -143.312252 
L 217.155878 -140.266831 
L 217.174417 -137.221411 
L 217.194399 -134.17599 
L 217.211926 -131.130569 
L 217.222903 -128.085148 
L 217.223319 -125.039728 
L 217.209532 -121.994307 
L 217.178513 -118.948886 
L 217.128055 -115.903465 
L 217.056909 -112.858045 
L 216.964855 -109.812624 
L 216.852694 -106.767203 
L 216.722177 -103.721782 
L 216.575869 -100.676362 
L 216.416971 -97.630941 
L 216.249106 -94.58552 
L 216.076105 -91.540099 
L 215.901791 -88.494679 
L 215.72978 -85.449258 
L 215.563328 -82.403837 
L 215.405202 -79.358416 
L 215.257605 -76.312996 
L 215.12214 -73.267575 
L 214.999817 -70.222154 
L 214.891087 -67.176733 
L 214.795911 -64.131313 
L 214.713836 -61.085892 
z
" style="stroke: #363636; stroke-width: 1.25"/>
    </defs>
    <g clip-path="url(#p19f85aa056)">
     <use xlink:href="#m471e166204" x="0" y="326.134219" style="fill: #c38820; stroke: #363636; stroke-width: 1.25"/>
    </g>
   </g>
   <g id="FillBetweenPolyCollection_5">
    <defs>
     <path id="me2db752463" d="M 325.964375 -54.007246 
L 324.865839 -54.007246 
L 324.626779 -57.19567 
L 324.351922 -60.384094 
L 324.0399 -63.572517 
L 323.690243 -66.760941 
L 323.303558 -69.949365 
L 322.88167 -73.137788 
L 322.427714 -76.326212 
L 321.946176 -79.514636 
L 321.442848 -82.703059 
L 320.924709 -85.891483 
L 320.399716 -89.079907 
L 319.876519 -92.26833 
L 319.364098 -95.456754 
L 318.871357 -98.645178 
L 318.406683 -101.833602 
L 317.977501 -105.022025 
L 317.589871 -108.210449 
L 317.248135 -111.398873 
L 316.954666 -114.587296 
L 316.709721 -117.77572 
L 316.511428 -120.964144 
L 316.355903 -124.152567 
L 316.237494 -127.340991 
L 316.149127 -130.529415 
L 316.08274 -133.717838 
L 316.029747 -136.906262 
L 315.981522 -140.094686 
L 315.929826 -143.283109 
L 315.867168 -146.471533 
L 315.787058 -149.659957 
L 315.684127 -152.848381 
L 315.554112 -156.036804 
L 315.393725 -159.225228 
L 315.200398 -162.413652 
L 314.971977 -165.602075 
L 314.706378 -168.790499 
L 314.401269 -171.978923 
L 314.053832 -175.167346 
L 313.660633 -178.35577 
L 313.217655 -181.544194 
L 312.720499 -184.732617 
L 312.164761 -187.921041 
L 311.546565 -191.109465 
L 310.863214 -194.297888 
L 310.113908 -197.486312 
L 309.300457 -200.674736 
L 308.427921 -203.86316 
L 307.505094 -207.051583 
L 306.544775 -210.240007 
L 305.563768 -213.428431 
L 304.582579 -216.616854 
L 303.624806 -219.805278 
L 302.716241 -222.993702 
L 301.88373 -226.182125 
L 301.153862 -229.370549 
L 300.551579 -232.558973 
L 300.098805 -235.747396 
L 299.813196 -238.93582 
L 299.707108 -242.124244 
L 299.786863 -245.312667 
L 300.052376 -248.501091 
L 300.497162 -251.689515 
L 301.108728 -254.877939 
L 301.869327 -258.066362 
L 302.756998 -261.254786 
L 303.746822 -264.44321 
L 304.812304 -267.631633 
L 305.926769 -270.820057 
L 307.064674 -274.008481 
L 308.202768 -277.196904 
L 309.321002 -280.385328 
L 310.403165 -283.573752 
L 311.437223 -286.762175 
L 312.415342 -289.950599 
L 313.333658 -293.139023 
L 314.191805 -296.327446 
L 314.992283 -299.51587 
L 315.739717 -302.704294 
L 316.440087 -305.892718 
L 317.099978 -309.081141 
L 317.72591 -312.269565 
L 318.323793 -315.457989 
L 318.898514 -318.646412 
L 319.453689 -321.834836 
L 319.991561 -325.02326 
L 320.513031 -328.211683 
L 321.017808 -331.400107 
L 321.504633 -334.588531 
L 321.971555 -337.776954 
L 322.416231 -340.965378 
L 322.83621 -344.153802 
L 323.229194 -347.342226 
L 323.593247 -350.530649 
L 323.926947 -353.719073 
L 324.229489 -356.907497 
L 324.500713 -360.09592 
L 324.741099 -363.284344 
L 324.951709 -366.472768 
L 325.134105 -369.661191 
L 325.964375 -369.661191 
L 325.964375 -369.661191 
L 325.964375 -366.472768 
L 325.964375 -363.284344 
L 325.964375 -360.09592 
L 325.964375 -356.907497 
L 325.964375 -353.719073 
L 325.964375 -350.530649 
L 325.964375 -347.342226 
L 325.964375 -344.153802 
L 325.964375 -340.965378 
L 325.964375 -337.776954 
L 325.964375 -334.588531 
L 325.964375 -331.400107 
L 325.964375 -328.211683 
L 325.964375 -325.02326 
L 325.964375 -321.834836 
L 325.964375 -318.646412 
L 325.964375 -315.457989 
L 325.964375 -312.269565 
L 325.964375 -309.081141 
L 325.964375 -305.892718 
L 325.964375 -302.704294 
L 325.964375 -299.51587 
L 325.964375 -296.327446 
L 325.964375 -293.139023 
L 325.964375 -289.950599 
L 325.964375 -286.762175 
L 325.964375 -283.573752 
L 325.964375 -280.385328 
L 325.964375 -277.196904 
L 325.964375 -274.008481 
L 325.964375 -270.820057 
L 325.964375 -267.631633 
L 325.964375 -264.44321 
L 325.964375 -261.254786 
L 325.964375 -258.066362 
L 325.964375 -254.877939 
L 325.964375 -251.689515 
L 325.964375 -248.501091 
L 325.964375 -245.312667 
L 325.964375 -242.124244 
L 325.964375 -238.93582 
L 325.964375 -235.747396 
L 325.964375 -232.558973 
L 325.964375 -229.370549 
L 325.964375 -226.182125 
L 325.964375 -222.993702 
L 325.964375 -219.805278 
L 325.964375 -216.616854 
L 325.964375 -213.428431 
L 325.964375 -210.240007 
L 325.964375 -207.051583 
L 325.964375 -203.86316 
L 325.964375 -200.674736 
L 325.964375 -197.486312 
L 325.964375 -194.297888 
L 325.964375 -191.109465 
L 325.964375 -187.921041 
L 325.964375 -184.732617 
L 325.964375 -181.544194 
L 325.964375 -178.35577 
L 325.964375 -175.167346 
L 325.964375 -171.978923 
L 325.964375 -168.790499 
L 325.964375 -165.602075 
L 325.964375 -162.413652 
L 325.964375 -159.225228 
L 325.964375 -156.036804 
L 325.964375 -152.848381 
L 325.964375 -149.659957 
L 325.964375 -146.471533 
L 325.964375 -143.283109 
L 325.964375 -140.094686 
L 325.964375 -136.906262 
L 325.964375 -133.717838 
L 325.964375 -130.529415 
L 325.964375 -127.340991 
L 325.964375 -124.152567 
L 325.964375 -120.964144 
L 325.964375 -117.77572 
L 325.964375 -114.587296 
L 325.964375 -111.398873 
L 325.964375 -108.210449 
L 325.964375 -105.022025 
L 325.964375 -101.833602 
L 325.964375 -98.645178 
L 325.964375 -95.456754 
L 325.964375 -92.26833 
L 325.964375 -89.079907 
L 325.964375 -85.891483 
L 325.964375 -82.703059 
L 325.964375 -79.514636 
L 325.964375 -76.326212 
L 325.964375 -73.137788 
L 325.964375 -69.949365 
L 325.964375 -66.760941 
L 325.964375 -63.572517 
L 325.964375 -60.384094 
L 325.964375 -57.19567 
L 325.964375 -54.007246 
z
" style="stroke: #363636; stroke-width: 1.25"/>
    </defs>
    <g clip-path="url(#p19f85aa056)">
     <use xlink:href="#me2db752463" x="0" y="326.134219" style="fill: #176d9c; stroke: #363636; stroke-width: 1.25"/>
    </g>
   </g>
   <g id="FillBetweenPolyCollection_6">
    <defs>
     <path id="m73248d552d" d="M 326.587693 -54.321528 
L 325.964375 -54.321528 
L 325.964375 -57.503603 
L 325.964375 -60.685677 
L 325.964375 -63.867752 
L 325.964375 -67.049826 
L 325.964375 -70.231901 
L 325.964375 -73.413975 
L 325.964375 -76.59605 
L 325.964375 -79.778125 
L 325.964375 -82.960199 
L 325.964375 -86.142274 
L 325.964375 -89.324348 
L 325.964375 -92.506423 
L 325.964375 -95.688497 
L 325.964375 -98.870572 
L 325.964375 -102.052646 
L 325.964375 -105.234721 
L 325.964375 -108.416796 
L 325.964375 -111.59887 
L 325.964375 -114.780945 
L 325.964375 -117.963019 
L 325.964375 -121.145094 
L 325.964375 -124.327168 
L 325.964375 -127.509243 
L 325.964375 -130.691317 
L 325.964375 -133.873392 
L 325.964375 -137.055467 
L 325.964375 -140.237541 
L 325.964375 -143.419616 
L 325.964375 -146.60169 
L 325.964375 -149.783765 
L 325.964375 -152.965839 
L 325.964375 -156.147914 
L 325.964375 -159.329989 
L 325.964375 -162.512063 
L 325.964375 -165.694138 
L 325.964375 -168.876212 
L 325.964375 -172.058287 
L 325.964375 -175.240361 
L 325.964375 -178.422436 
L 325.964375 -181.60451 
L 325.964375 -184.786585 
L 325.964375 -187.96866 
L 325.964375 -191.150734 
L 325.964375 -194.332809 
L 325.964375 -197.514883 
L 325.964375 -200.696958 
L 325.964375 -203.879032 
L 325.964375 -207.061107 
L 325.964375 -210.243181 
L 325.964375 -213.425256 
L 325.964375 -216.607331 
L 325.964375 -219.789405 
L 325.964375 -222.97148 
L 325.964375 -226.153554 
L 325.964375 -229.335629 
L 325.964375 -232.517703 
L 325.964375 -235.699778 
L 325.964375 -238.881853 
L 325.964375 -242.063927 
L 325.964375 -245.246002 
L 325.964375 -248.428076 
L 325.964375 -251.610151 
L 325.964375 -254.792225 
L 325.964375 -257.9743 
L 325.964375 -261.156374 
L 325.964375 -264.338449 
L 325.964375 -267.520524 
L 325.964375 -270.702598 
L 325.964375 -273.884673 
L 325.964375 -277.066747 
L 325.964375 -280.248822 
L 325.964375 -283.430896 
L 325.964375 -286.612971 
L 325.964375 -289.795045 
L 325.964375 -292.97712 
L 325.964375 -296.159195 
L 325.964375 -299.341269 
L 325.964375 -302.523344 
L 325.964375 -305.705418 
L 325.964375 -308.887493 
L 325.964375 -312.069567 
L 325.964375 -315.251642 
L 325.964375 -318.433716 
L 325.964375 -321.615791 
L 325.964375 -324.797866 
L 325.964375 -327.97994 
L 325.964375 -331.162015 
L 325.964375 -334.344089 
L 325.964375 -337.526164 
L 325.964375 -340.708238 
L 325.964375 -343.890313 
L 325.964375 -347.072388 
L 325.964375 -350.254462 
L 325.964375 -353.436537 
L 325.964375 -356.618611 
L 325.964375 -359.800686 
L 325.964375 -362.98276 
L 325.964375 -366.164835 
L 325.964375 -369.346909 
L 328.776271 -369.346909 
L 328.776271 -369.346909 
L 329.390084 -366.164835 
L 330.096043 -362.98276 
L 330.897655 -359.800686 
L 331.79609 -356.618611 
L 332.789721 -353.436537 
L 333.873754 -350.254462 
L 335.039986 -347.072388 
L 336.27671 -343.890313 
L 337.568827 -340.708238 
L 338.898161 -337.526164 
L 340.244004 -334.344089 
L 341.583865 -331.162015 
L 342.894402 -327.97994 
L 344.15249 -324.797866 
L 345.336358 -321.615791 
L 346.426716 -318.433716 
L 347.4078 -315.251642 
L 348.268233 -312.069567 
L 349.001639 -308.887493 
L 349.606951 -305.705418 
L 350.088351 -302.523344 
L 350.454861 -299.341269 
L 350.719574 -296.159195 
L 350.898587 -292.97712 
L 351.009699 -289.795045 
L 351.070989 -286.612971 
L 351.099352 -283.430896 
L 351.109148 -280.248822 
L 351.111037 -277.066747 
L 351.111117 -273.884673 
L 351.110432 -270.702598 
L 351.10489 -267.520524 
L 351.08559 -264.338449 
L 351.039548 -261.156374 
L 350.950745 -257.9743 
L 350.801421 -254.792225 
L 350.57351 -251.610151 
L 350.250093 -248.428076 
L 349.816763 -245.246002 
L 349.262806 -242.063927 
L 348.582099 -238.881853 
L 347.773678 -235.699778 
L 346.841942 -232.517703 
L 345.796509 -229.335629 
L 344.651724 -226.153554 
L 343.425908 -222.97148 
L 342.140389 -219.789405 
L 340.818417 -216.607331 
L 339.484038 -213.425256 
L 338.161004 -210.243181 
L 336.871795 -207.061107 
L 335.636798 -203.879032 
L 334.473684 -200.696958 
L 333.39699 -197.514883 
L 332.417914 -194.332809 
L 331.544296 -191.150734 
L 330.780761 -187.96866 
L 330.128977 -184.786585 
L 329.588009 -181.60451 
L 329.1547 -178.422436 
L 328.824065 -175.240361 
L 328.589668 -172.058287 
L 328.443951 -168.876212 
L 328.378512 -165.694138 
L 328.384328 -162.512063 
L 328.451933 -159.329989 
L 328.571545 -156.147914 
L 328.73318 -152.965839 
L 328.926747 -149.783765 
L 329.142147 -146.60169 
L 329.369387 -143.419616 
L 329.59872 -140.237541 
L 329.820806 -137.055467 
L 330.02689 -133.873392 
L 330.209005 -130.691317 
L 330.36017 -127.509243 
L 330.474581 -124.327168 
L 330.547772 -121.145094 
L 330.576744 -117.963019 
L 330.560037 -114.780945 
L 330.497738 -111.59887 
L 330.391434 -108.416796 
L 330.244092 -105.234721 
L 330.059887 -102.052646 
L 329.843974 -98.870572 
L 329.602235 -95.688497 
L 329.340993 -92.506423 
L 329.066738 -89.324348 
L 328.78585 -86.142274 
L 328.504364 -82.960199 
L 328.227763 -79.778125 
L 327.960818 -76.59605 
L 327.707487 -73.413975 
L 327.470857 -70.231901 
L 327.253138 -67.049826 
L 327.055695 -63.867752 
L 326.879123 -60.685677 
L 326.723338 -57.503603 
L 326.587693 -54.321528 
z
" style="stroke: #363636; stroke-width: 1.25"/>
    </defs>
    <g clip-path="url(#p19f85aa056)">
     <use xlink:href="#m73248d552d" x="0" y="326.134219" style="fill: #c38820; stroke: #363636; stroke-width: 1.25"/>
    </g>
   </g>
   <g id="FillBetweenPolyCollection_7">
    <defs>
     <path id="mef84297e52" d="M 437.564375 -53.584592 
L 436.740636 -53.584592 
L 436.560735 -56.781554 
L 436.353267 -59.978516 
L 436.116791 -63.175479 
L 435.850384 -66.372441 
L 435.553734 -69.569403 
L 435.227204 -72.766365 
L 434.871856 -75.963327 
L 434.489426 -79.160289 
L 434.082254 -82.357251 
L 433.653143 -85.554214 
L 433.20517 -88.751176 
L 432.741451 -91.948138 
L 432.264866 -95.1451 
L 431.777775 -98.342062 
L 431.281741 -101.539024 
L 430.777288 -104.735987 
L 430.26373 -107.932949 
L 429.739091 -111.129911 
L 429.200138 -114.326873 
L 428.642543 -117.523835 
L 428.061188 -120.720797 
L 427.450589 -123.917759 
L 426.805429 -127.114722 
L 426.121174 -130.311684 
L 425.39471 -133.508646 
L 424.624964 -136.705608 
L 423.813451 -139.90257 
L 422.964681 -143.099532 
L 422.086392 -146.296495 
L 421.189557 -149.493457 
L 420.288147 -152.690419 
L 419.398654 -155.887381 
L 418.539377 -159.084343 
L 417.729524 -162.281305 
L 416.988184 -165.478267 
L 416.333229 -168.67523 
L 415.780253 -171.872192 
L 415.341606 -175.069154 
L 415.025621 -178.266116 
L 414.836081 -181.463078 
L 414.771997 -184.66004 
L 414.827689 -187.857003 
L 414.993196 -191.053965 
L 415.25496 -194.250927 
L 415.596747 -197.447889 
L 416.000724 -200.644851 
L 416.4486 -203.841813 
L 416.922751 -207.038776 
L 417.407234 -210.235738 
L 417.888611 -213.4327 
L 418.356533 -216.629662 
L 418.804041 -219.826624 
L 419.227574 -223.023586 
L 419.626709 -226.220548 
L 420.003662 -229.417511 
L 420.362613 -232.614473 
L 420.708934 -235.811435 
L 421.048383 -239.008397 
L 421.386357 -242.205359 
L 421.727256 -245.402321 
L 422.074025 -248.599284 
L 422.427892 -251.796246 
L 422.788331 -254.993208 
L 423.153225 -258.19017 
L 423.519211 -261.387132 
L 423.882159 -264.584094 
L 424.237727 -267.781056 
L 424.58193 -270.978019 
L 424.911671 -274.174981 
L 425.225175 -277.371943 
L 425.522283 -280.568905 
L 425.804588 -283.765867 
L 426.075397 -286.962829 
L 426.339521 -290.159792 
L 426.602934 -293.356754 
L 426.872315 -296.553716 
L 427.154527 -299.750678 
L 427.456081 -302.94764 
L 427.782624 -306.144602 
L 428.138507 -309.341564 
L 428.526443 -312.538527 
L 428.947309 -315.735489 
L 429.400065 -318.932451 
L 429.881828 -322.129413 
L 430.388055 -325.326375 
L 430.912835 -328.523337 
L 431.449245 -331.7203 
L 431.989761 -334.917262 
L 432.526665 -338.114224 
L 433.052444 -341.311186 
L 433.560132 -344.508148 
L 434.043599 -347.70511 
L 434.497763 -350.902073 
L 434.918712 -354.099035 
L 435.303765 -357.295997 
L 435.651441 -360.492959 
L 435.961386 -363.689921 
L 436.234243 -366.886883 
L 436.471489 -370.083845 
L 437.564375 -370.083845 
L 437.564375 -370.083845 
L 437.564375 -366.886883 
L 437.564375 -363.689921 
L 437.564375 -360.492959 
L 437.564375 -357.295997 
L 437.564375 -354.099035 
L 437.564375 -350.902073 
L 437.564375 -347.70511 
L 437.564375 -344.508148 
L 437.564375 -341.311186 
L 437.564375 -338.114224 
L 437.564375 -334.917262 
L 437.564375 -331.7203 
L 437.564375 -328.523337 
L 437.564375 -325.326375 
L 437.564375 -322.129413 
L 437.564375 -318.932451 
L 437.564375 -315.735489 
L 437.564375 -312.538527 
L 437.564375 -309.341564 
L 437.564375 -306.144602 
L 437.564375 -302.94764 
L 437.564375 -299.750678 
L 437.564375 -296.553716 
L 437.564375 -293.356754 
L 437.564375 -290.159792 
L 437.564375 -286.962829 
L 437.564375 -283.765867 
L 437.564375 -280.568905 
L 437.564375 -277.371943 
L 437.564375 -274.174981 
L 437.564375 -270.978019 
L 437.564375 -267.781056 
L 437.564375 -264.584094 
L 437.564375 -261.387132 
L 437.564375 -258.19017 
L 437.564375 -254.993208 
L 437.564375 -251.796246 
L 437.564375 -248.599284 
L 437.564375 -245.402321 
L 437.564375 -242.205359 
L 437.564375 -239.008397 
L 437.564375 -235.811435 
L 437.564375 -232.614473 
L 437.564375 -229.417511 
L 437.564375 -226.220548 
L 437.564375 -223.023586 
L 437.564375 -219.826624 
L 437.564375 -216.629662 
L 437.564375 -213.4327 
L 437.564375 -210.235738 
L 437.564375 -207.038776 
L 437.564375 -203.841813 
L 437.564375 -200.644851 
L 437.564375 -197.447889 
L 437.564375 -194.250927 
L 437.564375 -191.053965 
L 437.564375 -187.857003 
L 437.564375 -184.66004 
L 437.564375 -181.463078 
L 437.564375 -178.266116 
L 437.564375 -175.069154 
L 437.564375 -171.872192 
L 437.564375 -168.67523 
L 437.564375 -165.478267 
L 437.564375 -162.281305 
L 437.564375 -159.084343 
L 437.564375 -155.887381 
L 437.564375 -152.690419 
L 437.564375 -149.493457 
L 437.564375 -146.296495 
L 437.564375 -143.099532 
L 437.564375 -139.90257 
L 437.564375 -136.705608 
L 437.564375 -133.508646 
L 437.564375 -130.311684 
L 437.564375 -127.114722 
L 437.564375 -123.917759 
L 437.564375 -120.720797 
L 437.564375 -117.523835 
L 437.564375 -114.326873 
L 437.564375 -111.129911 
L 437.564375 -107.932949 
L 437.564375 -104.735987 
L 437.564375 -101.539024 
L 437.564375 -98.342062 
L 437.564375 -95.1451 
L 437.564375 -91.948138 
L 437.564375 -88.751176 
L 437.564375 -85.554214 
L 437.564375 -82.357251 
L 437.564375 -79.160289 
L 437.564375 -75.963327 
L 437.564375 -72.766365 
L 437.564375 -69.569403 
L 437.564375 -66.372441 
L 437.564375 -63.175479 
L 437.564375 -59.978516 
L 437.564375 -56.781554 
L 437.564375 -53.584592 
z
" style="stroke: #363636; stroke-width: 1.25"/>
    </defs>
    <g clip-path="url(#p19f85aa056)">
     <use xlink:href="#mef84297e52" x="0" y="326.134219" style="fill: #176d9c; stroke: #363636; stroke-width: 1.25"/>
    </g>
   </g>
   <g id="FillBetweenPolyCollection_8">
    <path d="M 438.017545 358.475405 
L 437.564375 358.475405 
L 437.564375 354.178932 
L 437.564375 349.882459 
L 437.564375 345.585986 
L 437.564375 341.289513 
L 437.564375 336.99304 
L 437.564375 332.696568 
L 437.564375 328.400095 
L 437.564375 324.103622 
L 437.564375 319.807149 
L 437.564375 315.510676 
L 437.564375 311.214204 
L 437.564375 306.917731 
L 437.564375 302.621258 
L 437.564375 298.324785 
L 437.564375 294.028312 
L 437.564375 289.731839 
L 437.564375 285.435367 
L 437.564375 281.138894 
L 437.564375 276.842421 
L 437.564375 272.545948 
L 437.564375 268.249475 
L 437.564375 263.953003 
L 437.564375 259.65653 
L 437.564375 255.360057 
L 437.564375 251.063584 
L 437.564375 246.767111 
L 437.564375 242.470638 
L 437.564375 238.174166 
L 437.564375 233.877693 
L 437.564375 229.58122 
L 437.564375 225.284747 
L 437.564375 220.988274 
L 437.564375 216.691802 
L 437.564375 212.395329 
L 437.564375 208.098856 
L 437.564375 203.802383 
L 437.564375 199.50591 
L 437.564375 195.209437 
L 437.564375 190.912965 
L 437.564375 186.616492 
L 437.564375 182.320019 
L 437.564375 178.023546 
L 437.564375 173.727073 
L 437.564375 169.430601 
L 437.564375 165.134128 
L 437.564375 160.837655 
L 437.564375 156.541182 
L 437.564375 152.244709 
L 437.564375 147.948236 
L 437.564375 143.651764 
L 437.564375 139.355291 
L 437.564375 135.058818 
L 437.564375 130.762345 
L 437.564375 126.465872 
L 437.564375 122.169399 
L 437.564375 117.872927 
L 437.564375 113.576454 
L 437.564375 109.279981 
L 437.564375 104.983508 
L 437.564375 100.687035 
L 437.564375 96.390563 
L 437.564375 92.09409 
L 437.564375 87.797617 
L 437.564375 83.501144 
L 437.564375 79.204671 
L 437.564375 74.908198 
L 437.564375 70.611726 
L 437.564375 66.315253 
L 437.564375 62.01878 
L 437.564375 57.722307 
L 437.564375 53.425834 
L 437.564375 49.129362 
L 437.564375 44.832889 
L 437.564375 40.536416 
L 437.564375 36.239943 
L 437.564375 31.94347 
L 437.564375 27.646997 
L 437.564375 23.350525 
L 437.564375 19.054052 
L 437.564375 14.757579 
L 437.564375 10.461106 
L 437.564375 6.164633 
L 437.564375 1.868161 
L 437.564375 -2.428312 
L 437.564375 -6.724785 
L 437.564375 -11.021258 
L 437.564375 -15.317731 
L 437.564375 -19.614204 
L 437.564375 -23.910676 
L 437.564375 -28.207149 
L 437.564375 -32.503622 
L 437.564375 -36.800095 
L 437.564375 -41.096568 
L 437.564375 -45.39304 
L 437.564375 -49.689513 
L 437.564375 -53.985986 
L 437.564375 -58.282459 
L 437.564375 -62.578932 
L 437.564375 -66.875405 
L 439.855956 -66.875405 
L 439.855956 -66.875405 
L 440.34967 -62.578932 
L 440.91754 -58.282459 
L 441.562938 -53.985986 
L 442.287596 -49.689513 
L 443.091268 -45.39304 
L 443.971431 -41.096568 
L 444.923071 -36.800095 
L 445.938554 -32.503622 
L 447.007629 -28.207149 
L 448.117556 -23.910676 
L 449.253378 -19.614204 
L 450.398325 -15.317731 
L 451.534346 -11.021258 
L 452.642735 -6.724785 
L 453.704816 -2.428312 
L 454.702655 1.868161 
L 455.619752 6.164633 
L 456.441658 10.461106 
L 457.156489 14.757579 
L 457.755302 19.054052 
L 458.232302 23.350525 
L 458.584884 27.646997 
L 458.8135 31.94347 
L 458.921385 36.239943 
L 458.914154 40.536416 
L 458.799324 44.832889 
L 458.585784 49.129362 
L 458.283279 53.425834 
L 457.901916 57.722307 
L 457.451749 62.01878 
L 456.942449 66.315253 
L 456.383077 70.611726 
L 455.78195 74.908198 
L 455.146597 79.204671 
L 454.483787 83.501144 
L 453.799609 87.797617 
L 453.099567 92.09409 
L 452.38869 96.390563 
L 451.671629 100.687035 
L 450.952724 104.983508 
L 450.236045 109.279981 
L 449.525411 113.576454 
L 448.82438 117.872927 
L 448.136223 122.169399 
L 447.463909 126.465872 
L 446.810081 130.762345 
L 446.177057 135.058818 
L 445.566849 139.355291 
L 444.981195 143.651764 
L 444.421619 147.948236 
L 443.889496 152.244709 
L 443.386116 156.541182 
L 442.912752 160.837655 
L 442.470704 165.134128 
L 442.061327 169.430601 
L 441.686026 173.727073 
L 441.346226 178.023546 
L 441.043311 182.320019 
L 440.778537 186.616492 
L 440.552925 190.912965 
L 440.367145 195.209437 
L 440.221395 199.50591 
L 440.115286 203.802383 
L 440.047748 208.098856 
L 440.016953 212.395329 
L 440.020279 216.691802 
L 440.0543 220.988274 
L 440.11483 225.284747 
L 440.196996 229.58122 
L 440.295353 233.877693 
L 440.404043 238.174166 
L 440.51697 242.470638 
L 440.628005 246.767111 
L 440.7312 251.063584 
L 440.820999 255.360057 
L 440.892439 259.65653 
L 440.941334 263.953003 
L 440.964411 268.249475 
L 440.959425 272.545948 
L 440.925212 276.842421 
L 440.861696 281.138894 
L 440.769853 285.435367 
L 440.651614 289.731839 
L 440.509748 294.028312 
L 440.347689 298.324785 
L 440.169365 302.621258 
L 439.978996 306.917731 
L 439.780908 311.214204 
L 439.579346 315.510676 
L 439.378317 319.807149 
L 439.181452 324.103622 
L 438.991906 328.400095 
L 438.812286 332.696568 
L 438.64462 336.99304 
L 438.49035 341.289513 
L 438.350357 345.585986 
L 438.22501 349.882459 
L 438.114225 354.178932 
L 438.017545 358.475405 
z
" clip-path="url(#p19f85aa056)" style="fill: #c38820; stroke: #363636; stroke-width: 1.25"/>
   </g>
   <g id="FillBetweenPolyCollection_9">
    <defs>
     <path id="m65120fe8c0" d="M 549.164375 -64.317293 
L 548.837012 -64.317293 
L 548.756992 -67.297433 
L 548.663757 -70.277573 
L 548.556871 -73.257712 
L 548.436364 -76.237852 
L 548.302817 -79.217992 
L 548.157438 -82.198132 
L 548.002096 -85.178272 
L 547.839325 -88.158412 
L 547.672269 -91.138552 
L 547.504586 -94.118692 
L 547.340291 -97.098832 
L 547.183559 -100.078972 
L 547.038493 -103.059112 
L 546.908868 -106.039252 
L 546.797879 -109.019392 
L 546.707905 -111.999531 
L 546.640321 -114.979671 
L 546.595358 -117.959811 
L 546.572053 -120.939951 
L 546.568276 -123.920091 
L 546.580839 -126.900231 
L 546.605689 -129.880371 
L 546.638169 -132.860511 
L 546.673316 -135.840651 
L 546.706175 -138.820791 
L 546.732109 -141.800931 
L 546.747062 -144.781071 
L 546.747746 -147.76121 
L 546.731747 -150.74135 
L 546.697513 -153.72149 
L 546.644234 -156.70163 
L 546.571609 -159.68177 
L 546.479527 -162.66191 
L 546.36767 -165.64205 
L 546.235092 -168.62219 
L 546.079811 -171.60233 
L 545.898455 -174.58247 
L 545.686017 -177.56261 
L 545.435764 -180.54275 
L 545.139331 -183.52289 
L 544.787027 -186.503029 
L 544.368362 -189.483169 
L 543.872773 -192.463309 
L 543.290532 -195.443449 
L 542.613755 -198.423589 
L 541.83746 -201.403729 
L 540.960558 -204.383869 
L 539.986699 -207.364009 
L 538.924844 -210.344149 
L 537.789489 -213.324289 
L 536.600467 -216.304429 
L 535.382269 -219.284569 
L 534.162903 -222.264708 
L 532.972315 -225.244848 
L 531.840467 -228.224988 
L 530.795207 -231.205128 
L 529.860083 -234.185268 
L 529.05231 -237.165408 
L 528.381061 -240.145548 
L 527.846278 -243.125688 
L 527.438152 -246.105828 
L 527.137369 -249.085968 
L 526.91616 -252.066108 
L 526.740132 -255.046248 
L 526.570773 -258.026388 
L 526.368461 -261.006527 
L 526.095757 -263.986667 
L 525.720714 -266.966807 
L 525.219936 -269.946947 
L 524.581111 -272.927087 
L 523.80478 -275.907227 
L 522.90518 -278.887367 
L 521.910035 -281.867507 
L 520.859294 -284.847647 
L 519.802874 -287.827787 
L 518.797581 -290.807927 
L 517.90342 -293.788067 
L 517.179611 -296.768206 
L 516.68059 -299.748346 
L 516.452349 -302.728486 
L 516.529374 -305.708626 
L 516.932423 -308.688766 
L 517.667311 -311.668906 
L 518.724744 -314.649046 
L 520.0812 -317.629186 
L 521.700728 -320.609326 
L 523.537477 -323.589466 
L 525.538729 -326.569606 
L 527.648162 -329.549746 
L 529.809077 -332.529886 
L 531.967363 -335.510025 
L 534.074 -338.490165 
L 536.086968 -341.470305 
L 537.972497 -344.450445 
L 539.70565 -347.430585 
L 541.270288 -350.410725 
L 542.658524 -353.390865 
L 543.869764 -356.371005 
L 544.909488 -359.351145 
L 549.164375 -359.351145 
L 549.164375 -359.351145 
L 549.164375 -356.371005 
L 549.164375 -353.390865 
L 549.164375 -350.410725 
L 549.164375 -347.430585 
L 549.164375 -344.450445 
L 549.164375 -341.470305 
L 549.164375 -338.490165 
L 549.164375 -335.510025 
L 549.164375 -332.529886 
L 549.164375 -329.549746 
L 549.164375 -326.569606 
L 549.164375 -323.589466 
L 549.164375 -320.609326 
L 549.164375 -317.629186 
L 549.164375 -314.649046 
L 549.164375 -311.668906 
L 549.164375 -308.688766 
L 549.164375 -305.708626 
L 549.164375 -302.728486 
L 549.164375 -299.748346 
L 549.164375 -296.768206 
L 549.164375 -293.788067 
L 549.164375 -290.807927 
L 549.164375 -287.827787 
L 549.164375 -284.847647 
L 549.164375 -281.867507 
L 549.164375 -278.887367 
L 549.164375 -275.907227 
L 549.164375 -272.927087 
L 549.164375 -269.946947 
L 549.164375 -266.966807 
L 549.164375 -263.986667 
L 549.164375 -261.006527 
L 549.164375 -258.026388 
L 549.164375 -255.046248 
L 549.164375 -252.066108 
L 549.164375 -249.085968 
L 549.164375 -246.105828 
L 549.164375 -243.125688 
L 549.164375 -240.145548 
L 549.164375 -237.165408 
L 549.164375 -234.185268 
L 549.164375 -231.205128 
L 549.164375 -228.224988 
L 549.164375 -225.244848 
L 549.164375 -222.264708 
L 549.164375 -219.284569 
L 549.164375 -216.304429 
L 549.164375 -213.324289 
L 549.164375 -210.344149 
L 549.164375 -207.364009 
L 549.164375 -204.383869 
L 549.164375 -201.403729 
L 549.164375 -198.423589 
L 549.164375 -195.443449 
L 549.164375 -192.463309 
L 549.164375 -189.483169 
L 549.164375 -186.503029 
L 549.164375 -183.52289 
L 549.164375 -180.54275 
L 549.164375 -177.56261 
L 549.164375 -174.58247 
L 549.164375 -171.60233 
L 549.164375 -168.62219 
L 549.164375 -165.64205 
L 549.164375 -162.66191 
L 549.164375 -159.68177 
L 549.164375 -156.70163 
L 549.164375 -153.72149 
L 549.164375 -150.74135 
L 549.164375 -147.76121 
L 549.164375 -144.781071 
L 549.164375 -141.800931 
L 549.164375 -138.820791 
L 549.164375 -135.840651 
L 549.164375 -132.860511 
L 549.164375 -129.880371 
L 549.164375 -126.900231 
L 549.164375 -123.920091 
L 549.164375 -120.939951 
L 549.164375 -117.959811 
L 549.164375 -114.979671 
L 549.164375 -111.999531 
L 549.164375 -109.019392 
L 549.164375 -106.039252 
L 549.164375 -103.059112 
L 549.164375 -100.078972 
L 549.164375 -97.098832 
L 549.164375 -94.118692 
L 549.164375 -91.138552 
L 549.164375 -88.158412 
L 549.164375 -85.178272 
L 549.164375 -82.198132 
L 549.164375 -79.217992 
L 549.164375 -76.237852 
L 549.164375 -73.257712 
L 549.164375 -70.277573 
L 549.164375 -67.297433 
L 549.164375 -64.317293 
z
" style="stroke: #363636; stroke-width: 1.25"/>
    </defs>
    <g clip-path="url(#p19f85aa056)">
     <use xlink:href="#m65120fe8c0" x="0" y="326.134219" style="fill: #176d9c; stroke: #363636; stroke-width: 1.25"/>
    </g>
   </g>
   <g id="FillBetweenPolyCollection_10">
    <defs>
     <path id="mce4d32cc2f" d="M 549.518772 -61.875777 
L 549.164375 -61.875777 
L 549.164375 -64.905241 
L 549.164375 -67.934704 
L 549.164375 -70.964168 
L 549.164375 -73.993631 
L 549.164375 -77.023095 
L 549.164375 -80.052558 
L 549.164375 -83.082021 
L 549.164375 -86.111485 
L 549.164375 -89.140948 
L 549.164375 -92.170412 
L 549.164375 -95.199875 
L 549.164375 -98.229339 
L 549.164375 -101.258802 
L 549.164375 -104.288266 
L 549.164375 -107.317729 
L 549.164375 -110.347193 
L 549.164375 -113.376656 
L 549.164375 -116.40612 
L 549.164375 -119.435583 
L 549.164375 -122.465047 
L 549.164375 -125.49451 
L 549.164375 -128.523973 
L 549.164375 -131.553437 
L 549.164375 -134.5829 
L 549.164375 -137.612364 
L 549.164375 -140.641827 
L 549.164375 -143.671291 
L 549.164375 -146.700754 
L 549.164375 -149.730218 
L 549.164375 -152.759681 
L 549.164375 -155.789145 
L 549.164375 -158.818608 
L 549.164375 -161.848072 
L 549.164375 -164.877535 
L 549.164375 -167.906999 
L 549.164375 -170.936462 
L 549.164375 -173.965925 
L 549.164375 -176.995389 
L 549.164375 -180.024852 
L 549.164375 -183.054316 
L 549.164375 -186.083779 
L 549.164375 -189.113243 
L 549.164375 -192.142706 
L 549.164375 -195.17217 
L 549.164375 -198.201633 
L 549.164375 -201.231097 
L 549.164375 -204.26056 
L 549.164375 -207.290024 
L 549.164375 -210.319487 
L 549.164375 -213.34895 
L 549.164375 -216.378414 
L 549.164375 -219.407877 
L 549.164375 -222.437341 
L 549.164375 -225.466804 
L 549.164375 -228.496268 
L 549.164375 -231.525731 
L 549.164375 -234.555195 
L 549.164375 -237.584658 
L 549.164375 -240.614122 
L 549.164375 -243.643585 
L 549.164375 -246.673049 
L 549.164375 -249.702512 
L 549.164375 -252.731976 
L 549.164375 -255.761439 
L 549.164375 -258.790902 
L 549.164375 -261.820366 
L 549.164375 -264.849829 
L 549.164375 -267.879293 
L 549.164375 -270.908756 
L 549.164375 -273.93822 
L 549.164375 -276.967683 
L 549.164375 -279.997147 
L 549.164375 -283.02661 
L 549.164375 -286.056074 
L 549.164375 -289.085537 
L 549.164375 -292.115001 
L 549.164375 -295.144464 
L 549.164375 -298.173927 
L 549.164375 -301.203391 
L 549.164375 -304.232854 
L 549.164375 -307.262318 
L 549.164375 -310.291781 
L 549.164375 -313.321245 
L 549.164375 -316.350708 
L 549.164375 -319.380172 
L 549.164375 -322.409635 
L 549.164375 -325.439099 
L 549.164375 -328.468562 
L 549.164375 -331.498026 
L 549.164375 -334.527489 
L 549.164375 -337.556953 
L 549.164375 -340.586416 
L 549.164375 -343.615879 
L 549.164375 -346.645343 
L 549.164375 -349.674806 
L 549.164375 -352.70427 
L 549.164375 -355.733733 
L 549.164375 -358.763197 
L 549.164375 -361.79266 
L 555.184557 -361.79266 
L 555.184557 -361.79266 
L 556.610295 -358.763197 
L 558.264451 -355.733733 
L 560.154182 -352.70427 
L 562.278945 -349.674806 
L 564.628944 -346.645343 
L 567.183855 -343.615879 
L 569.912011 -340.586416 
L 572.770164 -337.556953 
L 575.703952 -334.527489 
L 578.649137 -331.498026 
L 581.533636 -328.468562 
L 584.28027 -325.439099 
L 586.810128 -322.409635 
L 589.04634 -319.380172 
L 590.918023 -316.350708 
L 592.364116 -313.321245 
L 593.336821 -310.291781 
L 593.804375 -307.262318 
L 593.752938 -304.232854 
L 593.187422 -301.203391 
L 592.131211 -298.173927 
L 590.624766 -295.144464 
L 588.723247 -292.115001 
L 586.493336 -289.085537 
L 584.009497 -286.056074 
L 581.349985 -283.02661 
L 578.592878 -279.997147 
L 575.812411 -276.967683 
L 573.075848 -273.93822 
L 570.441067 -270.908756 
L 567.954938 -267.879293 
L 565.652545 -264.849829 
L 563.557201 -261.820366 
L 561.681143 -258.790902 
L 560.02679 -255.761439 
L 558.588384 -252.731976 
L 557.353834 -249.702512 
L 556.306621 -246.673049 
L 555.427596 -243.643585 
L 554.696579 -240.614122 
L 554.093666 -237.584658 
L 553.600211 -234.555195 
L 553.199475 -231.525731 
L 552.876952 -228.496268 
L 552.62043 -225.466804 
L 552.419835 -222.437341 
L 552.266919 -219.407877 
L 552.154871 -216.378414 
L 552.077897 -213.34895 
L 552.030838 -210.319487 
L 552.008847 -207.290024 
L 552.007171 -204.26056 
L 552.021031 -201.231097 
L 552.045617 -198.201633 
L 552.076173 -195.17217 
L 552.108154 -192.142706 
L 552.137433 -189.113243 
L 552.160514 -186.083779 
L 552.174734 -183.054316 
L 552.178419 -180.024852 
L 552.170979 -176.995389 
L 552.152908 -173.965925 
L 552.125715 -170.936462 
L 552.091762 -167.906999 
L 552.054025 -164.877535 
L 552.015818 -161.848072 
L 551.980465 -158.818608 
L 551.950992 -155.789145 
L 551.929825 -152.759681 
L 551.918549 -149.730218 
L 551.917735 -146.700754 
L 551.926851 -143.671291 
L 551.944269 -140.641827 
L 551.967358 -137.612364 
L 551.992666 -134.5829 
L 552.016166 -131.553437 
L 552.03355 -128.523973 
L 552.040536 -125.49451 
L 552.033184 -122.465047 
L 552.008169 -119.435583 
L 551.96301 -116.40612 
L 551.896231 -113.376656 
L 551.807446 -110.347193 
L 551.697357 -107.317729 
L 551.567692 -104.288266 
L 551.421056 -101.258802 
L 551.260753 -98.229339 
L 551.090558 -95.199875 
L 550.914487 -92.170412 
L 550.736563 -89.140948 
L 550.56061 -86.111485 
L 550.390077 -83.082021 
L 550.227904 -80.052558 
L 550.076439 -77.023095 
L 549.937397 -73.993631 
L 549.811865 -70.964168 
L 549.70034 -67.934704 
L 549.602796 -64.905241 
L 549.518772 -61.875777 
z
" style="stroke: #363636; stroke-width: 1.25"/>
    </defs>
    <g clip-path="url(#p19f85aa056)">
     <use xlink:href="#mce4d32cc2f" x="0" y="326.134219" style="fill: #c38820; stroke: #363636; stroke-width: 1.25"/>
    </g>
   </g>
   <g id="patch_3">
    <path d="M 102.764375 334.8 
L 102.764375 334.8 
L 102.764375 334.8 
L 102.764375 334.8 
z
" clip-path="url(#p19f85aa056)" style="fill: #176d9c; stroke: #363636; stroke-width: 1.25; stroke-linejoin: miter"/>
   </g>
   <g id="patch_4">
    <path d="M 102.764375 334.8 
L 102.764375 334.8 
L 102.764375 334.8 
L 102.764375 334.8 
z
" clip-path="url(#p19f85aa056)" style="fill: #c38820; stroke: #363636; stroke-width: 1.25; stroke-linejoin: miter"/>
   </g>
   <g id="line2d_10">
    <path d="M 85.30933 177.3 
L 102.764375 177.3 
" clip-path="url(#p19f85aa056)" style="fill: none; stroke-dasharray: 1.5625,0.9375; stroke-dashoffset: 0; stroke: #363636; stroke-width: 1.25"/>
   </g>
   <g id="line2d_11">
    <path d="M 82.107444 145.8 
L 102.764375 145.8 
" clip-path="url(#p19f85aa056)" style="fill: none; stroke-dasharray: 3.125,1.25; stroke-dashoffset: 0; stroke: #363636; stroke-width: 1.25"/>
   </g>
   <g id="line2d_12">
    <path d="M 87.730022 82.8 
L 102.764375 82.8 
" clip-path="url(#p19f85aa056)" style="fill: none; stroke-dasharray: 1.5625,0.9375; stroke-dashoffset: 0; stroke: #363636; stroke-width: 1.25"/>
   </g>
   <g id="line2d_13">
    <path d="M 102.764375 145.8 
L 112.907282 145.8 
" clip-path="url(#p19f85aa056)" style="fill: none; stroke-dasharray: 1.5625,0.9375; stroke-dashoffset: 0; stroke: #363636; stroke-width: 1.25"/>
   </g>
   <g id="line2d_14">
    <path d="M 102.764375 82.8 
L 119.554459 82.8 
" clip-path="url(#p19f85aa056)" style="fill: none; stroke-dasharray: 3.125,1.25; stroke-dashoffset: 0; stroke: #363636; stroke-width: 1.25"/>
   </g>
   <g id="line2d_15">
    <path d="M 102.764375 19.8 
L 120.949919 19.8 
" clip-path="url(#p19f85aa056)" style="fill: none; stroke-dasharray: 1.5625,0.9375; stroke-dashoffset: 0; stroke: #363636; stroke-width: 1.25"/>
   </g>
   <g id="line2d_16">
    <path d="M 169.744064 82.8 
L 214.364375 82.8 
" clip-path="url(#p19f85aa056)" style="fill: none; stroke-dasharray: 1.5625,0.9375; stroke-dashoffset: 0; stroke: #363636; stroke-width: 1.25"/>
   </g>
   <g id="line2d_17">
    <path d="M 169.744064 82.8 
L 214.364375 82.8 
" clip-path="url(#p19f85aa056)" style="fill: none; stroke-dasharray: 3.125,1.25; stroke-dashoffset: 0; stroke: #363636; stroke-width: 1.25"/>
   </g>
   <g id="line2d_18">
    <path d="M 191.817477 19.8 
L 214.364375 19.8 
" clip-path="url(#p19f85aa056)" style="fill: none; stroke-dasharray: 1.5625,0.9375; stroke-dashoffset: 0; stroke: #363636; stroke-width: 1.25"/>
   </g>
   <g id="line2d_19">
    <path d="M 214.364375 19.8 
L 256.003387 19.8 
" clip-path="url(#p19f85aa056)" style="fill: none; stroke-dasharray: 1.5625,0.9375; stroke-dashoffset: 0; stroke: #363636; stroke-width: 1.25"/>
   </g>
   <g id="line2d_20">
    <path d="M 214.364375 19.8 
L 256.003387 19.8 
" clip-path="url(#p19f85aa056)" style="fill: none; stroke-dasharray: 3.125,1.25; stroke-dashoffset: 0; stroke: #363636; stroke-width: 1.25"/>
   </g>
   <g id="line2d_21">
    <path d="M 214.364375 19.8 
L 256.003387 19.8 
" clip-path="url(#p19f85aa056)" style="fill: none; stroke-dasharray: 1.5625,0.9375; stroke-dashoffset: 0; stroke: #363636; stroke-width: 1.25"/>
   </g>
   <g id="line2d_22">
    <path d="M 313.385761 145.8 
L 325.964375 145.8 
" clip-path="url(#p19f85aa056)" style="fill: none; stroke-dasharray: 1.5625,0.9375; stroke-dashoffset: 0; stroke: #363636; stroke-width: 1.25"/>
   </g>
   <g id="line2d_23">
    <path d="M 299.737374 82.8 
L 325.964375 82.8 
" clip-path="url(#p19f85aa056)" style="fill: none; stroke-dasharray: 3.125,1.25; stroke-dashoffset: 0; stroke: #363636; stroke-width: 1.25"/>
   </g>
   <g id="line2d_24">
    <path d="M 299.737374 82.8 
L 325.964375 82.8 
" clip-path="url(#p19f85aa056)" style="fill: none; stroke-dasharray: 1.5625,0.9375; stroke-dashoffset: 0; stroke: #363636; stroke-width: 1.25"/>
   </g>
   <g id="line2d_25">
    <path d="M 325.964375 82.8 
L 349.483947 82.8 
" clip-path="url(#p19f85aa056)" style="fill: none; stroke-dasharray: 1.5625,0.9375; stroke-dashoffset: 0; stroke: #363636; stroke-width: 1.25"/>
   </g>
   <g id="line2d_26">
    <path d="M 325.964375 82.8 
L 349.483947 82.8 
" clip-path="url(#p19f85aa056)" style="fill: none; stroke-dasharray: 3.125,1.25; stroke-dashoffset: 0; stroke: #363636; stroke-width: 1.25"/>
   </g>
   <g id="line2d_27">
    <path d="M 325.964375 19.8 
L 349.487337 19.8 
" clip-path="url(#p19f85aa056)" style="fill: none; stroke-dasharray: 1.5625,0.9375; stroke-dashoffset: 0; stroke: #363636; stroke-width: 1.25"/>
   </g>
   <g id="line2d_28">
    <path d="M 414.903008 145.8 
L 437.564375 145.8 
" clip-path="url(#p19f85aa056)" style="fill: none; stroke-dasharray: 1.5625,0.9375; stroke-dashoffset: 0; stroke: #363636; stroke-width: 1.25"/>
   </g>
   <g id="line2d_29">
    <path d="M 414.903008 145.8 
L 437.564375 145.8 
" clip-path="url(#p19f85aa056)" style="fill: none; stroke-dasharray: 3.125,1.25; stroke-dashoffset: 0; stroke: #363636; stroke-width: 1.25"/>
   </g>
   <g id="line2d_30">
    <path d="M 421.50673 82.8 
L 437.564375 82.8 
" clip-path="url(#p19f85aa056)" style="fill: none; stroke-dasharray: 1.5625,0.9375; stroke-dashoffset: 0; stroke: #363636; stroke-width: 1.25"/>
   </g>
   <g id="line2d_31">
    <path d="M 437.564375 82.8 
L 454.591952 82.8 
" clip-path="url(#p19f85aa056)" style="fill: none; stroke-dasharray: 1.5625,0.9375; stroke-dashoffset: 0; stroke: #363636; stroke-width: 1.25"/>
   </g>
   <g id="line2d_32">
    <path d="M 437.564375 51.3 
L 458.432955 51.3 
" clip-path="url(#p19f85aa056)" style="fill: none; stroke-dasharray: 3.125,1.25; stroke-dashoffset: 0; stroke: #363636; stroke-width: 1.25"/>
   </g>
   <g id="line2d_33">
    <path d="M 437.564375 19.8 
L 457.838118 19.8 
" clip-path="url(#p19f85aa056)" style="fill: none; stroke-dasharray: 1.5625,0.9375; stroke-dashoffset: 0; stroke: #363636; stroke-width: 1.25"/>
   </g>
   <g id="line2d_34">
    <path d="M 527.81772 82.8 
L 549.164375 82.8 
" clip-path="url(#p19f85aa056)" style="fill: none; stroke-dasharray: 1.5625,0.9375; stroke-dashoffset: 0; stroke: #363636; stroke-width: 1.25"/>
   </g>
   <g id="line2d_35">
    <path d="M 516.613982 19.8 
L 549.164375 19.8 
" clip-path="url(#p19f85aa056)" style="fill: none; stroke-dasharray: 3.125,1.25; stroke-dashoffset: 0; stroke: #363636; stroke-width: 1.25"/>
   </g>
   <g id="line2d_36">
    <path d="M 516.613982 19.8 
L 549.164375 19.8 
" clip-path="url(#p19f85aa056)" style="fill: none; stroke-dasharray: 1.5625,0.9375; stroke-dashoffset: 0; stroke: #363636; stroke-width: 1.25"/>
   </g>
   <g id="line2d_37">
    <path d="M 549.164375 19.8 
L 593.788617 19.8 
" clip-path="url(#p19f85aa056)" style="fill: none; stroke-dasharray: 1.5625,0.9375; stroke-dashoffset: 0; stroke: #363636; stroke-width: 1.25"/>
   </g>
   <g id="line2d_38">
    <path d="M 549.164375 19.8 
L 593.788617 19.8 
" clip-path="url(#p19f85aa056)" style="fill: none; stroke-dasharray: 3.125,1.25; stroke-dashoffset: 0; stroke: #363636; stroke-width: 1.25"/>
   </g>
   <g id="line2d_39">
    <path d="M 549.164375 19.8 
L 593.788617 19.8 
" clip-path="url(#p19f85aa056)" style="fill: none; stroke-dasharray: 1.5625,0.9375; stroke-dashoffset: 0; stroke: #363636; stroke-width: 1.25"/>
   </g>
   <g id="patch_5">
    <path d="M 46.964375 284.4 
L 46.964375 7.2 
" style="fill: none; stroke: #cccccc; stroke-width: 1.25; stroke-linejoin: miter; stroke-linecap: square"/>
   </g>
   <g id="patch_6">
    <path d="M 604.964375 284.4 
L 604.964375 7.2 
" style="fill: none; stroke: #cccccc; stroke-width: 1.25; stroke-linejoin: miter; stroke-linecap: square"/>
   </g>
   <g id="patch_7">
    <path d="M 46.964375 284.4 
L 604.964375 284.4 
" style="fill: none; stroke: #cccccc; stroke-width: 1.25; stroke-linejoin: miter; stroke-linecap: square"/>
   </g>
   <g id="patch_8">
    <path d="M 46.964375 7.2 
L 604.964375 7.2 
" style="fill: none; stroke: #cccccc; stroke-width: 1.25; stroke-linejoin: miter; stroke-linecap: square"/>
   </g>
   <g id="legend_1">
    <g id="patch_9">
     <path d="M 54.664375 63.594063 
L 111.874688 63.594063 
Q 114.074688 63.594063 114.074688 61.394063 
L 114.074688 14.9 
Q 114.074688 12.7 111.874688 12.7 
L 54.664375 12.7 
Q 52.464375 12.7 52.464375 14.9 
L 52.464375 61.394063 
Q 52.464375 63.594063 54.664375 63.594063 
z
" style="fill: #ffffff; opacity: 0.8; stroke: #cccccc; stroke-linejoin: miter"/>
    </g>
    <g id="text_17">
     <!-- time -->
     <g style="fill: #262626" transform="translate(71.935156 25.689375) scale(0.12 -0.12)">
      <use xlink:href="#ArialMT-74"/>
      <use xlink:href="#ArialMT-69" transform="translate(27.783203 0)"/>
      <use xlink:href="#ArialMT-6d" transform="translate(50 0)"/>
      <use xlink:href="#ArialMT-65" transform="translate(133.300781 0)"/>
     </g>
    </g>
    <g id="patch_10">
     <path d="M 56.864375 41.447969 
L 78.864375 41.447969 
L 78.864375 33.747969 
L 56.864375 33.747969 
z
" style="fill: #176d9c; stroke: #363636; stroke-width: 1.25; stroke-linejoin: miter"/>
    </g>
    <g id="text_18">
     <!-- Pre -->
     <g style="fill: #262626" transform="translate(87.664375 41.447969) scale(0.11 -0.11)">
      <defs>
       <path id="ArialMT-50" d="M 494 0 
L 494 4581 
L 2222 4581 
Q 2678 4581 2919 4538 
Q 3256 4481 3484 4323 
Q 3713 4166 3852 3881 
Q 3991 3597 3991 3256 
Q 3991 2672 3619 2267 
Q 3247 1863 2275 1863 
L 1100 1863 
L 1100 0 
L 494 0 
z
M 1100 2403 
L 2284 2403 
Q 2872 2403 3119 2622 
Q 3366 2841 3366 3238 
Q 3366 3525 3220 3729 
Q 3075 3934 2838 4000 
Q 2684 4041 2272 4041 
L 1100 4041 
L 1100 2403 
z
" transform="scale(0.015625)"/>
      </defs>
      <use xlink:href="#ArialMT-50"/>
      <use xlink:href="#ArialMT-72" transform="translate(66.699219 0)"/>
      <use xlink:href="#ArialMT-65" transform="translate(100 0)"/>
     </g>
    </g>
    <g id="patch_11">
     <path d="M 56.864375 57.007812 
L 78.864375 57.007812 
L 78.864375 49.307812 
L 56.864375 49.307812 
z
" style="fill: #c38820; stroke: #363636; stroke-width: 1.25; stroke-linejoin: miter"/>
    </g>
    <g id="text_19">
     <!-- Post -->
     <g style="fill: #262626" transform="translate(87.664375 57.007812) scale(0.11 -0.11)">
      <use xlink:href="#ArialMT-50"/>
      <use xlink:href="#ArialMT-6f" transform="translate(66.699219 0)"/>
      <use xlink:href="#ArialMT-73" transform="translate(122.314453 0)"/>
      <use xlink:href="#ArialMT-74" transform="translate(172.314453 0)"/>
     </g>
    </g>
   </g>
  </g>
 </g>
 <defs>
  <clipPath id="p19f85aa056">
   <rect x="46.964375" y="7.2" width="558" height="277.2"/>
  </clipPath>
 </defs>
</svg>
