<?xml version="1.0" encoding="utf-8" standalone="no"?>
<svg xmlns:xlink="http://www.w3.org/1999/xlink" width="609.108437pt" height="381.703125pt" viewBox="0 0 609.108437 381.703125" xmlns="http://www.w3.org/2000/svg" version="1.1">
 <defs>
  <style type="text/css">*{stroke-linejoin: round; stroke-linecap: butt}</style>
 </defs>
 <g id="figure_1">
  <g id="patch_1">
   <path d="M 0 381.703125 
L 609.108437 381.703125 
L 609.108437 0 
L 0 0 
z
" style="fill: #ffffff"/>
  </g>
  <g id="axes_1">
   <g id="patch_2">
    <path d="M 43.908437 339.84 
L 601.908437 339.84 
L 601.908437 7.2 
L 43.908437 7.2 
z
" style="fill: #ffffff"/>
   </g>
   <g id="matplotlib.axis_1">
    <g id="xtick_1">
     <g id="text_1">
      <!-- Knowledge -->
      <g style="fill: #262626" transform="translate(109.694609 357.213594) scale(0.11 -0.11)">
       <defs>
        <path id="ArialMT-4b" d="M 469 0 
L 469 4581 
L 1075 4581 
L 1075 2309 
L 3350 4581 
L 4172 4581 
L 2250 2725 
L 4256 0 
L 3456 0 
L 1825 2319 
L 1075 1588 
L 1075 0 
L 469 0 
z
" transform="scale(0.015625)"/>
        <path id="ArialMT-6e" d="M 422 0 
L 422 3319 
L 928 3319 
L 928 2847 
Q 1294 3394 1984 3394 
Q 2284 3394 2536 3286 
Q 2788 3178 2913 3003 
Q 3038 2828 3088 2588 
Q 3119 2431 3119 2041 
L 3119 0 
L 2556 0 
L 2556 2019 
Q 2556 2363 2490 2533 
Q 2425 2703 2258 2804 
Q 2091 2906 1866 2906 
Q 1506 2906 1245 2678 
Q 984 2450 984 1813 
L 984 0 
L 422 0 
z
" transform="scale(0.015625)"/>
        <path id="ArialMT-6f" d="M 213 1659 
Q 213 2581 725 3025 
Q 1153 3394 1769 3394 
Q 2453 3394 2887 2945 
Q 3322 2497 3322 1706 
Q 3322 1066 3130 698 
Q 2938 331 2570 128 
Q 2203 -75 1769 -75 
Q 1072 -75 642 372 
Q 213 819 213 1659 
z
M 791 1659 
Q 791 1022 1069 705 
Q 1347 388 1769 388 
Q 2188 388 2466 706 
Q 2744 1025 2744 1678 
Q 2744 2294 2464 2611 
Q 2184 2928 1769 2928 
Q 1347 2928 1069 2612 
Q 791 2297 791 1659 
z
" transform="scale(0.015625)"/>
        <path id="ArialMT-77" d="M 1034 0 
L 19 3319 
L 600 3319 
L 1128 1403 
L 1325 691 
Q 1338 744 1497 1375 
L 2025 3319 
L 2603 3319 
L 3100 1394 
L 3266 759 
L 3456 1400 
L 4025 3319 
L 4572 3319 
L 3534 0 
L 2950 0 
L 2422 1988 
L 2294 2553 
L 1622 0 
L 1034 0 
z
" transform="scale(0.015625)"/>
        <path id="ArialMT-6c" d="M 409 0 
L 409 4581 
L 972 4581 
L 972 0 
L 409 0 
z
" transform="scale(0.015625)"/>
        <path id="ArialMT-65" d="M 2694 1069 
L 3275 997 
Q 3138 488 2766 206 
Q 2394 -75 1816 -75 
Q 1088 -75 661 373 
Q 234 822 234 1631 
Q 234 2469 665 2931 
Q 1097 3394 1784 3394 
Q 2450 3394 2872 2941 
Q 3294 2488 3294 1666 
Q 3294 1616 3291 1516 
L 816 1516 
Q 847 969 1125 678 
Q 1403 388 1819 388 
Q 2128 388 2347 550 
Q 2566 713 2694 1069 
z
M 847 1978 
L 2700 1978 
Q 2663 2397 2488 2606 
Q 2219 2931 1791 2931 
Q 1403 2931 1139 2672 
Q 875 2413 847 1978 
z
" transform="scale(0.015625)"/>
        <path id="ArialMT-64" d="M 2575 0 
L 2575 419 
Q 2259 -75 1647 -75 
Q 1250 -75 917 144 
Q 584 363 401 755 
Q 219 1147 219 1656 
Q 219 2153 384 2558 
Q 550 2963 881 3178 
Q 1213 3394 1622 3394 
Q 1922 3394 2156 3267 
Q 2391 3141 2538 2938 
L 2538 4581 
L 3097 4581 
L 3097 0 
L 2575 0 
z
M 797 1656 
Q 797 1019 1065 703 
Q 1334 388 1700 388 
Q 2069 388 2326 689 
Q 2584 991 2584 1609 
Q 2584 2291 2321 2609 
Q 2059 2928 1675 2928 
Q 1300 2928 1048 2622 
Q 797 2316 797 1656 
z
" transform="scale(0.015625)"/>
        <path id="ArialMT-67" d="M 319 -275 
L 866 -356 
Q 900 -609 1056 -725 
Q 1266 -881 1628 -881 
Q 2019 -881 2231 -725 
Q 2444 -569 2519 -288 
Q 2563 -116 2559 434 
Q 2191 0 1641 0 
Q 956 0 581 494 
Q 206 988 206 1678 
Q 206 2153 378 2554 
Q 550 2956 876 3175 
Q 1203 3394 1644 3394 
Q 2231 3394 2613 2919 
L 2613 3319 
L 3131 3319 
L 3131 450 
Q 3131 -325 2973 -648 
Q 2816 -972 2473 -1159 
Q 2131 -1347 1631 -1347 
Q 1038 -1347 672 -1080 
Q 306 -813 319 -275 
z
M 784 1719 
Q 784 1066 1043 766 
Q 1303 466 1694 466 
Q 2081 466 2343 764 
Q 2606 1063 2606 1700 
Q 2606 2309 2336 2618 
Q 2066 2928 1684 2928 
Q 1309 2928 1046 2623 
Q 784 2319 784 1719 
z
" transform="scale(0.015625)"/>
       </defs>
       <use xlink:href="#ArialMT-4b"/>
       <use xlink:href="#ArialMT-6e" transform="translate(66.699219 0)"/>
       <use xlink:href="#ArialMT-6f" transform="translate(122.314453 0)"/>
       <use xlink:href="#ArialMT-77" transform="translate(177.929688 0)"/>
       <use xlink:href="#ArialMT-6c" transform="translate(250.146484 0)"/>
       <use xlink:href="#ArialMT-65" transform="translate(272.363281 0)"/>
       <use xlink:href="#ArialMT-64" transform="translate(327.978516 0)"/>
       <use xlink:href="#ArialMT-67" transform="translate(383.59375 0)"/>
       <use xlink:href="#ArialMT-65" transform="translate(439.208984 0)"/>
      </g>
     </g>
    </g>
    <g id="xtick_2">
     <g id="text_2">
      <!-- Comfort -->
      <g style="fill: #262626" transform="translate(303.350781 357.213594) scale(0.11 -0.11)">
       <defs>
        <path id="ArialMT-43" d="M 3763 1606 
L 4369 1453 
Q 4178 706 3683 314 
Q 3188 -78 2472 -78 
Q 1731 -78 1267 223 
Q 803 525 561 1097 
Q 319 1669 319 2325 
Q 319 3041 592 3573 
Q 866 4106 1370 4382 
Q 1875 4659 2481 4659 
Q 3169 4659 3637 4309 
Q 4106 3959 4291 3325 
L 3694 3184 
Q 3534 3684 3231 3912 
Q 2928 4141 2469 4141 
Q 1941 4141 1586 3887 
Q 1231 3634 1087 3207 
Q 944 2781 944 2328 
Q 944 1744 1114 1308 
Q 1284 872 1643 656 
Q 2003 441 2422 441 
Q 2931 441 3284 734 
Q 3638 1028 3763 1606 
z
" transform="scale(0.015625)"/>
        <path id="ArialMT-6d" d="M 422 0 
L 422 3319 
L 925 3319 
L 925 2853 
Q 1081 3097 1340 3245 
Q 1600 3394 1931 3394 
Q 2300 3394 2536 3241 
Q 2772 3088 2869 2813 
Q 3263 3394 3894 3394 
Q 4388 3394 4653 3120 
Q 4919 2847 4919 2278 
L 4919 0 
L 4359 0 
L 4359 2091 
Q 4359 2428 4304 2576 
Q 4250 2725 4106 2815 
Q 3963 2906 3769 2906 
Q 3419 2906 3187 2673 
Q 2956 2441 2956 1928 
L 2956 0 
L 2394 0 
L 2394 2156 
Q 2394 2531 2256 2718 
Q 2119 2906 1806 2906 
Q 1569 2906 1367 2781 
Q 1166 2656 1075 2415 
Q 984 2175 984 1722 
L 984 0 
L 422 0 
z
" transform="scale(0.015625)"/>
        <path id="ArialMT-66" d="M 556 0 
L 556 2881 
L 59 2881 
L 59 3319 
L 556 3319 
L 556 3672 
Q 556 4006 616 4169 
Q 697 4388 901 4523 
Q 1106 4659 1475 4659 
Q 1713 4659 2000 4603 
L 1916 4113 
Q 1741 4144 1584 4144 
Q 1328 4144 1222 4034 
Q 1116 3925 1116 3625 
L 1116 3319 
L 1763 3319 
L 1763 2881 
L 1116 2881 
L 1116 0 
L 556 0 
z
" transform="scale(0.015625)"/>
        <path id="ArialMT-72" d="M 416 0 
L 416 3319 
L 922 3319 
L 922 2816 
Q 1116 3169 1280 3281 
Q 1444 3394 1641 3394 
Q 1925 3394 2219 3213 
L 2025 2691 
Q 1819 2813 1613 2813 
Q 1428 2813 1281 2702 
Q 1134 2591 1072 2394 
Q 978 2094 978 1738 
L 978 0 
L 416 0 
z
" transform="scale(0.015625)"/>
        <path id="ArialMT-74" d="M 1650 503 
L 1731 6 
Q 1494 -44 1306 -44 
Q 1000 -44 831 53 
Q 663 150 594 308 
Q 525 466 525 972 
L 525 2881 
L 113 2881 
L 113 3319 
L 525 3319 
L 525 4141 
L 1084 4478 
L 1084 3319 
L 1650 3319 
L 1650 2881 
L 1084 2881 
L 1084 941 
Q 1084 700 1114 631 
Q 1144 563 1211 522 
Q 1278 481 1403 481 
Q 1497 481 1650 503 
z
" transform="scale(0.015625)"/>
       </defs>
       <use xlink:href="#ArialMT-43"/>
       <use xlink:href="#ArialMT-6f" transform="translate(72.216797 0)"/>
       <use xlink:href="#ArialMT-6d" transform="translate(127.832031 0)"/>
       <use xlink:href="#ArialMT-66" transform="translate(211.132812 0)"/>
       <use xlink:href="#ArialMT-6f" transform="translate(238.916016 0)"/>
       <use xlink:href="#ArialMT-72" transform="translate(294.53125 0)"/>
       <use xlink:href="#ArialMT-74" transform="translate(327.832031 0)"/>
      </g>
     </g>
    </g>
    <g id="xtick_3">
     <g id="text_3">
      <!-- Attitude -->
      <g style="fill: #262626" transform="translate(490.258281 357.213594) scale(0.11 -0.11)">
       <defs>
        <path id="ArialMT-41" d="M -9 0 
L 1750 4581 
L 2403 4581 
L 4278 0 
L 3588 0 
L 3053 1388 
L 1138 1388 
L 634 0 
L -9 0 
z
M 1313 1881 
L 2866 1881 
L 2388 3150 
Q 2169 3728 2063 4100 
Q 1975 3659 1816 3225 
L 1313 1881 
z
" transform="scale(0.015625)"/>
        <path id="ArialMT-69" d="M 425 3934 
L 425 4581 
L 988 4581 
L 988 3934 
L 425 3934 
z
M 425 0 
L 425 3319 
L 988 3319 
L 988 0 
L 425 0 
z
" transform="scale(0.015625)"/>
        <path id="ArialMT-75" d="M 2597 0 
L 2597 488 
Q 2209 -75 1544 -75 
Q 1250 -75 995 37 
Q 741 150 617 320 
Q 494 491 444 738 
Q 409 903 409 1263 
L 409 3319 
L 972 3319 
L 972 1478 
Q 972 1038 1006 884 
Q 1059 663 1231 536 
Q 1403 409 1656 409 
Q 1909 409 2131 539 
Q 2353 669 2445 892 
Q 2538 1116 2538 1541 
L 2538 3319 
L 3100 3319 
L 3100 0 
L 2597 0 
z
" transform="scale(0.015625)"/>
       </defs>
       <use xlink:href="#ArialMT-41"/>
       <use xlink:href="#ArialMT-74" transform="translate(66.699219 0)"/>
       <use xlink:href="#ArialMT-74" transform="translate(94.482422 0)"/>
       <use xlink:href="#ArialMT-69" transform="translate(122.265625 0)"/>
       <use xlink:href="#ArialMT-74" transform="translate(144.482422 0)"/>
       <use xlink:href="#ArialMT-75" transform="translate(172.265625 0)"/>
       <use xlink:href="#ArialMT-64" transform="translate(227.880859 0)"/>
       <use xlink:href="#ArialMT-65" transform="translate(283.496094 0)"/>
      </g>
     </g>
    </g>
    <g id="text_4">
     <!-- domain -->
     <g style="fill: #262626" transform="translate(303.23125 372.118125) scale(0.12 -0.12)">
      <defs>
       <path id="ArialMT-61" d="M 2588 409 
Q 2275 144 1986 34 
Q 1697 -75 1366 -75 
Q 819 -75 525 192 
Q 231 459 231 875 
Q 231 1119 342 1320 
Q 453 1522 633 1644 
Q 813 1766 1038 1828 
Q 1203 1872 1538 1913 
Q 2219 1994 2541 2106 
Q 2544 2222 2544 2253 
Q 2544 2597 2384 2738 
Q 2169 2928 1744 2928 
Q 1347 2928 1158 2789 
Q 969 2650 878 2297 
L 328 2372 
Q 403 2725 575 2942 
Q 747 3159 1072 3276 
Q 1397 3394 1825 3394 
Q 2250 3394 2515 3294 
Q 2781 3194 2906 3042 
Q 3031 2891 3081 2659 
Q 3109 2516 3109 2141 
L 3109 1391 
Q 3109 606 3145 398 
Q 3181 191 3288 0 
L 2700 0 
Q 2613 175 2588 409 
z
M 2541 1666 
Q 2234 1541 1622 1453 
Q 1275 1403 1131 1340 
Q 988 1278 909 1158 
Q 831 1038 831 891 
Q 831 666 1001 516 
Q 1172 366 1500 366 
Q 1825 366 2078 508 
Q 2331 650 2450 897 
Q 2541 1088 2541 1459 
L 2541 1666 
z
" transform="scale(0.015625)"/>
      </defs>
      <use xlink:href="#ArialMT-64"/>
      <use xlink:href="#ArialMT-6f" transform="translate(55.615234 0)"/>
      <use xlink:href="#ArialMT-6d" transform="translate(111.230469 0)"/>
      <use xlink:href="#ArialMT-61" transform="translate(194.53125 0)"/>
      <use xlink:href="#ArialMT-69" transform="translate(250.146484 0)"/>
      <use xlink:href="#ArialMT-6e" transform="translate(272.363281 0)"/>
     </g>
    </g>
   </g>
   <g id="matplotlib.axis_2">
    <g id="ytick_1">
     <g id="line2d_1">
      <path d="M 43.908437 324.72 
L 601.908437 324.72 
" clip-path="url(#pe57cb27cf8)" style="fill: none; stroke: #cccccc; stroke-linecap: round"/>
     </g>
     <g id="text_5">
      <!-- 0 -->
      <g style="fill: #262626" transform="translate(28.291406 328.656797) scale(0.11 -0.11)">
       <defs>
        <path id="ArialMT-30" d="M 266 2259 
Q 266 3072 433 3567 
Q 600 4063 929 4331 
Q 1259 4600 1759 4600 
Q 2128 4600 2406 4451 
Q 2684 4303 2865 4023 
Q 3047 3744 3150 3342 
Q 3253 2941 3253 2259 
Q 3253 1453 3087 958 
Q 2922 463 2592 192 
Q 2263 -78 1759 -78 
Q 1097 -78 719 397 
Q 266 969 266 2259 
z
M 844 2259 
Q 844 1131 1108 757 
Q 1372 384 1759 384 
Q 2147 384 2411 759 
Q 2675 1134 2675 2259 
Q 2675 3391 2411 3762 
Q 2147 4134 1753 4134 
Q 1366 4134 1134 3806 
Q 844 3388 844 2259 
z
" transform="scale(0.015625)"/>
       </defs>
       <use xlink:href="#ArialMT-30"/>
      </g>
     </g>
    </g>
    <g id="ytick_2">
     <g id="line2d_2">
      <path d="M 43.908437 264.24 
L 601.908437 264.24 
" clip-path="url(#pe57cb27cf8)" style="fill: none; stroke: #cccccc; stroke-linecap: round"/>
     </g>
     <g id="text_6">
      <!-- 5 -->
      <g style="fill: #262626" transform="translate(28.291406 268.176797) scale(0.11 -0.11)">
       <defs>
        <path id="ArialMT-35" d="M 266 1200 
L 856 1250 
Q 922 819 1161 601 
Q 1400 384 1738 384 
Q 2144 384 2425 690 
Q 2706 997 2706 1503 
Q 2706 1984 2436 2262 
Q 2166 2541 1728 2541 
Q 1456 2541 1237 2417 
Q 1019 2294 894 2097 
L 366 2166 
L 809 4519 
L 3088 4519 
L 3088 3981 
L 1259 3981 
L 1013 2750 
Q 1425 3038 1878 3038 
Q 2478 3038 2890 2622 
Q 3303 2206 3303 1553 
Q 3303 931 2941 478 
Q 2500 -78 1738 -78 
Q 1113 -78 717 272 
Q 322 622 266 1200 
z
" transform="scale(0.015625)"/>
       </defs>
       <use xlink:href="#ArialMT-35"/>
      </g>
     </g>
    </g>
    <g id="ytick_3">
     <g id="line2d_3">
      <path d="M 43.908437 203.76 
L 601.908437 203.76 
" clip-path="url(#pe57cb27cf8)" style="fill: none; stroke: #cccccc; stroke-linecap: round"/>
     </g>
     <g id="text_7">
      <!-- 10 -->
      <g style="fill: #262626" transform="translate(22.174375 207.696797) scale(0.11 -0.11)">
       <defs>
        <path id="ArialMT-31" d="M 2384 0 
L 1822 0 
L 1822 3584 
Q 1619 3391 1289 3197 
Q 959 3003 697 2906 
L 697 3450 
Q 1169 3672 1522 3987 
Q 1875 4303 2022 4600 
L 2384 4600 
L 2384 0 
z
" transform="scale(0.015625)"/>
       </defs>
       <use xlink:href="#ArialMT-31"/>
       <use xlink:href="#ArialMT-30" transform="translate(55.615234 0)"/>
      </g>
     </g>
    </g>
    <g id="ytick_4">
     <g id="line2d_4">
      <path d="M 43.908437 143.28 
L 601.908437 143.28 
" clip-path="url(#pe57cb27cf8)" style="fill: none; stroke: #cccccc; stroke-linecap: round"/>
     </g>
     <g id="text_8">
      <!-- 15 -->
      <g style="fill: #262626" transform="translate(22.174375 147.216797) scale(0.11 -0.11)">
       <use xlink:href="#ArialMT-31"/>
       <use xlink:href="#ArialMT-35" transform="translate(55.615234 0)"/>
      </g>
     </g>
    </g>
    <g id="ytick_5">
     <g id="line2d_5">
      <path d="M 43.908437 82.8 
L 601.908437 82.8 
" clip-path="url(#pe57cb27cf8)" style="fill: none; stroke: #cccccc; stroke-linecap: round"/>
     </g>
     <g id="text_9">
      <!-- 20 -->
      <g style="fill: #262626" transform="translate(22.174375 86.736797) scale(0.11 -0.11)">
       <defs>
        <path id="ArialMT-32" d="M 3222 541 
L 3222 0 
L 194 0 
Q 188 203 259 391 
Q 375 700 629 1000 
Q 884 1300 1366 1694 
Q 2113 2306 2375 2664 
Q 2638 3022 2638 3341 
Q 2638 3675 2398 3904 
Q 2159 4134 1775 4134 
Q 1369 4134 1125 3890 
Q 881 3647 878 3216 
L 300 3275 
Q 359 3922 746 4261 
Q 1134 4600 1788 4600 
Q 2447 4600 2831 4234 
Q 3216 3869 3216 3328 
Q 3216 3053 3103 2787 
Q 2991 2522 2730 2228 
Q 2469 1934 1863 1422 
Q 1356 997 1212 845 
Q 1069 694 975 541 
L 3222 541 
z
" transform="scale(0.015625)"/>
       </defs>
       <use xlink:href="#ArialMT-32"/>
       <use xlink:href="#ArialMT-30" transform="translate(55.615234 0)"/>
      </g>
     </g>
    </g>
    <g id="ytick_6">
     <g id="line2d_6">
      <path d="M 43.908437 22.32 
L 601.908437 22.32 
" clip-path="url(#pe57cb27cf8)" style="fill: none; stroke: #cccccc; stroke-linecap: round"/>
     </g>
     <g id="text_10">
      <!-- 25 -->
      <g style="fill: #262626" transform="translate(22.174375 26.256797) scale(0.11 -0.11)">
       <use xlink:href="#ArialMT-32"/>
       <use xlink:href="#ArialMT-35" transform="translate(55.615234 0)"/>
      </g>
     </g>
    </g>
    <g id="text_11">
     <!-- Domain score -->
     <g style="fill: #262626" transform="translate(15.789375 210.531563) rotate(-90) scale(0.12 -0.12)">
      <defs>
       <path id="ArialMT-44" d="M 494 0 
L 494 4581 
L 2072 4581 
Q 2606 4581 2888 4516 
Q 3281 4425 3559 4188 
Q 3922 3881 4101 3404 
Q 4281 2928 4281 2316 
Q 4281 1794 4159 1391 
Q 4038 988 3847 723 
Q 3656 459 3429 307 
Q 3203 156 2883 78 
Q 2563 0 2147 0 
L 494 0 
z
M 1100 541 
L 2078 541 
Q 2531 541 2789 625 
Q 3047 709 3200 863 
Q 3416 1078 3536 1442 
Q 3656 1806 3656 2325 
Q 3656 3044 3420 3430 
Q 3184 3816 2847 3947 
Q 2603 4041 2063 4041 
L 1100 4041 
L 1100 541 
z
" transform="scale(0.015625)"/>
       <path id="ArialMT-20" transform="scale(0.015625)"/>
       <path id="ArialMT-73" d="M 197 991 
L 753 1078 
Q 800 744 1014 566 
Q 1228 388 1613 388 
Q 2000 388 2187 545 
Q 2375 703 2375 916 
Q 2375 1106 2209 1216 
Q 2094 1291 1634 1406 
Q 1016 1563 777 1677 
Q 538 1791 414 1992 
Q 291 2194 291 2438 
Q 291 2659 392 2848 
Q 494 3038 669 3163 
Q 800 3259 1026 3326 
Q 1253 3394 1513 3394 
Q 1903 3394 2198 3281 
Q 2494 3169 2634 2976 
Q 2775 2784 2828 2463 
L 2278 2388 
Q 2241 2644 2061 2787 
Q 1881 2931 1553 2931 
Q 1166 2931 1000 2803 
Q 834 2675 834 2503 
Q 834 2394 903 2306 
Q 972 2216 1119 2156 
Q 1203 2125 1616 2013 
Q 2213 1853 2448 1751 
Q 2684 1650 2818 1456 
Q 2953 1263 2953 975 
Q 2953 694 2789 445 
Q 2625 197 2315 61 
Q 2006 -75 1616 -75 
Q 969 -75 630 194 
Q 291 463 197 991 
z
" transform="scale(0.015625)"/>
       <path id="ArialMT-63" d="M 2588 1216 
L 3141 1144 
Q 3050 572 2676 248 
Q 2303 -75 1759 -75 
Q 1078 -75 664 370 
Q 250 816 250 1647 
Q 250 2184 428 2587 
Q 606 2991 970 3192 
Q 1334 3394 1763 3394 
Q 2303 3394 2647 3120 
Q 2991 2847 3088 2344 
L 2541 2259 
Q 2463 2594 2264 2762 
Q 2066 2931 1784 2931 
Q 1359 2931 1093 2626 
Q 828 2322 828 1663 
Q 828 994 1084 691 
Q 1341 388 1753 388 
Q 2084 388 2306 591 
Q 2528 794 2588 1216 
z
" transform="scale(0.015625)"/>
      </defs>
      <use xlink:href="#ArialMT-44"/>
      <use xlink:href="#ArialMT-6f" transform="translate(72.216797 0)"/>
      <use xlink:href="#ArialMT-6d" transform="translate(127.832031 0)"/>
      <use xlink:href="#ArialMT-61" transform="translate(211.132812 0)"/>
      <use xlink:href="#ArialMT-69" transform="translate(266.748047 0)"/>
      <use xlink:href="#ArialMT-6e" transform="translate(288.964844 0)"/>
      <use xlink:href="#ArialMT-20" transform="translate(344.580078 0)"/>
      <use xlink:href="#ArialMT-73" transform="translate(372.363281 0)"/>
      <use xlink:href="#ArialMT-63" transform="translate(422.363281 0)"/>
      <use xlink:href="#ArialMT-6f" transform="translate(472.363281 0)"/>
      <use xlink:href="#ArialMT-72" transform="translate(527.978516 0)"/>
      <use xlink:href="#ArialMT-65" transform="translate(561.279297 0)"/>
     </g>
    </g>
   </g>
   <g id="line2d_7">
    <path d="M 109.008437 278.439652 
L 295.008438 258.98087 
L 481.008438 96.473739 
" clip-path="url(#pe57cb27cf8)" style="fill: none; stroke: #0173b2; stroke-width: 2.7; stroke-linecap: round"/>
    <defs>
     <path id="mac667c8113" d="M 0 3.383948 
C 0.897434 3.383948 1.758231 3.027394 2.392813 2.392813 
C 3.027394 1.758231 3.383948 0.897434 3.383948 0 
C 3.383948 -0.897434 3.027394 -1.758231 2.392813 -2.392813 
C 1.758231 -3.027394 0.897434 -3.383948 0 -3.383948 
C -0.897434 -3.383948 -1.758231 -3.027394 -2.392813 -2.392813 
C -3.027394 -1.758231 -3.383948 -0.897434 -3.383948 0 
C -3.383948 0.897434 -3.027394 1.758231 -2.392813 2.392813 
C -1.758231 3.027394 -0.897434 3.383948 0 3.383948 
z
" style="stroke: #0173b2; stroke-width: 2.025"/>
    </defs>
    <g clip-path="url(#pe57cb27cf8)">
     <use xlink:href="#mac667c8113" x="109.008437" y="278.439652" style="fill: #0173b2; stroke: #0173b2; stroke-width: 2.025"/>
     <use xlink:href="#mac667c8113" x="295.008438" y="258.98087" style="fill: #0173b2; stroke: #0173b2; stroke-width: 2.025"/>
     <use xlink:href="#mac667c8113" x="481.008438" y="96.473739" style="fill: #0173b2; stroke: #0173b2; stroke-width: 2.025"/>
    </g>
   </g>
   <g id="line2d_8">
    <path d="M 164.808437 272.654609 
L 350.808437 150.642783 
L 536.808437 96.999652 
" clip-path="url(#pe57cb27cf8)" style="fill: none; stroke: #de8f05; stroke-width: 2.7; stroke-linecap: round"/>
    <defs>
     <path id="mc6ab0705f8" d="M 0 3.383948 
C 0.897434 3.383948 1.758231 3.027394 2.392813 2.392813 
C 3.027394 1.758231 3.383948 0.897434 3.383948 0 
C 3.383948 -0.897434 3.027394 -1.758231 2.392813 -2.392813 
C 1.758231 -3.027394 0.897434 -3.383948 0 -3.383948 
C -0.897434 -3.383948 -1.758231 -3.027394 -2.392813 -2.392813 
C -3.027394 -1.758231 -3.383948 -0.897434 -3.383948 0 
C -3.383948 0.897434 -3.027394 1.758231 -2.392813 2.392813 
C -1.758231 3.027394 -0.897434 3.383948 0 3.383948 
z
" style="stroke: #de8f05; stroke-width: 2.025"/>
    </defs>
    <g clip-path="url(#pe57cb27cf8)">
     <use xlink:href="#mc6ab0705f8" x="164.808437" y="272.654609" style="fill: #de8f05; stroke: #de8f05; stroke-width: 2.025"/>
     <use xlink:href="#mc6ab0705f8" x="350.808437" y="150.642783" style="fill: #de8f05; stroke: #de8f05; stroke-width: 2.025"/>
     <use xlink:href="#mc6ab0705f8" x="536.808437" y="96.999652" style="fill: #de8f05; stroke: #de8f05; stroke-width: 2.025"/>
    </g>
   </g>
   <g id="line2d_9"/>
   <g id="line2d_10"/>
   <g id="patch_3">
    <path d="M 43.908437 339.84 
L 43.908437 7.2 
" style="fill: none; stroke: #cccccc; stroke-width: 1.25; stroke-linejoin: miter; stroke-linecap: square"/>
   </g>
   <g id="patch_4">
    <path d="M 601.908437 339.84 
L 601.908437 7.2 
" style="fill: none; stroke: #cccccc; stroke-width: 1.25; stroke-linejoin: miter; stroke-linecap: square"/>
   </g>
   <g id="patch_5">
    <path d="M 43.908437 339.84 
L 601.908437 339.84 
" style="fill: none; stroke: #cccccc; stroke-width: 1.25; stroke-linejoin: miter; stroke-linecap: square"/>
   </g>
   <g id="patch_6">
    <path d="M 43.908437 7.2 
L 601.908437 7.2 
" style="fill: none; stroke: #cccccc; stroke-width: 1.25; stroke-linejoin: miter; stroke-linecap: square"/>
   </g>
   <g id="PathCollection_1">
    <defs>
     <path id="C0_0_c2d6796740" d="M 0 2.5 
C 0.663008 2.5 1.29895 2.236584 1.767767 1.767767 
C 2.236584 1.29895 2.5 0.663008 2.5 -0 
C 2.5 -0.663008 2.236584 -1.29895 1.767767 -1.767767 
C 1.29895 -2.236584 0.663008 -2.5 0 -2.5 
C -0.663008 -2.5 -1.29895 -2.236584 -1.767767 -1.767767 
C -2.236584 -1.29895 -2.5 -0.663008 -2.5 0 
C -2.5 0.663008 -2.236584 1.29895 -1.767767 1.767767 
C -1.29895 2.236584 -0.663008 2.5 0 2.5 
z
"/>
    </defs>
    <g clip-path="url(#pe57cb27cf8)">
     <use xlink:href="#C0_0_c2d6796740" x="92.818579" y="264.24" style="fill: #0173b2; fill-opacity: 0.4"/>
    </g>
    <g clip-path="url(#pe57cb27cf8)">
     <use xlink:href="#C0_0_c2d6796740" x="102.674353" y="276.336" style="fill: #0173b2; fill-opacity: 0.4"/>
    </g>
    <g clip-path="url(#pe57cb27cf8)">
     <use xlink:href="#C0_0_c2d6796740" x="97.640199" y="276.336" style="fill: #0173b2; fill-opacity: 0.4"/>
    </g>
    <g clip-path="url(#pe57cb27cf8)">
     <use xlink:href="#C0_0_c2d6796740" x="91.338661" y="264.24" style="fill: #0173b2; fill-opacity: 0.4"/>
    </g>
    <g clip-path="url(#pe57cb27cf8)">
     <use xlink:href="#C0_0_c2d6796740" x="105.863158" y="276.336" style="fill: #0173b2; fill-opacity: 0.4"/>
    </g>
    <g clip-path="url(#pe57cb27cf8)">
     <use xlink:href="#C0_0_c2d6796740" x="96.258633" y="288.432" style="fill: #0173b2; fill-opacity: 0.4"/>
    </g>
    <g clip-path="url(#pe57cb27cf8)">
     <use xlink:href="#C0_0_c2d6796740" x="90.525709" y="288.432" style="fill: #0173b2; fill-opacity: 0.4"/>
    </g>
    <g clip-path="url(#pe57cb27cf8)">
     <use xlink:href="#C0_0_c2d6796740" x="93.231945" y="276.336" style="fill: #0173b2; fill-opacity: 0.4"/>
    </g>
    <g clip-path="url(#pe57cb27cf8)">
     <use xlink:href="#C0_0_c2d6796740" x="103.422067" y="276.336" style="fill: #0173b2; fill-opacity: 0.4"/>
    </g>
    <g clip-path="url(#pe57cb27cf8)">
     <use xlink:href="#C0_0_c2d6796740" x="94.954833" y="288.432" style="fill: #0173b2; fill-opacity: 0.4"/>
    </g>
    <g clip-path="url(#pe57cb27cf8)">
     <use xlink:href="#C0_0_c2d6796740" x="92.91891" y="276.336" style="fill: #0173b2; fill-opacity: 0.4"/>
    </g>
    <g clip-path="url(#pe57cb27cf8)">
     <use xlink:href="#C0_0_c2d6796740" x="95.095933" y="276.336" style="fill: #0173b2; fill-opacity: 0.4"/>
    </g>
    <g clip-path="url(#pe57cb27cf8)">
     <use xlink:href="#C0_0_c2d6796740" x="100.513248" y="276.336" style="fill: #0173b2; fill-opacity: 0.4"/>
    </g>
    <g clip-path="url(#pe57cb27cf8)">
     <use xlink:href="#C0_0_c2d6796740" x="103.98671" y="288.432" style="fill: #0173b2; fill-opacity: 0.4"/>
    </g>
    <g clip-path="url(#pe57cb27cf8)">
     <use xlink:href="#C0_0_c2d6796740" x="96.732857" y="288.432" style="fill: #0173b2; fill-opacity: 0.4"/>
    </g>
    <g clip-path="url(#pe57cb27cf8)">
     <use xlink:href="#C0_0_c2d6796740" x="106.222085" y="276.336" style="fill: #0173b2; fill-opacity: 0.4"/>
    </g>
    <g clip-path="url(#pe57cb27cf8)">
     <use xlink:href="#C0_0_c2d6796740" x="94.093789" y="276.336" style="fill: #0173b2; fill-opacity: 0.4"/>
    </g>
    <g clip-path="url(#pe57cb27cf8)">
     <use xlink:href="#C0_0_c2d6796740" x="100.088954" y="276.336" style="fill: #0173b2; fill-opacity: 0.4"/>
    </g>
    <g clip-path="url(#pe57cb27cf8)">
     <use xlink:href="#C0_0_c2d6796740" x="94.784017" y="276.336" style="fill: #0173b2; fill-opacity: 0.4"/>
    </g>
    <g clip-path="url(#pe57cb27cf8)">
     <use xlink:href="#C0_0_c2d6796740" x="97.853967" y="276.336" style="fill: #0173b2; fill-opacity: 0.4"/>
    </g>
    <g clip-path="url(#pe57cb27cf8)">
     <use xlink:href="#C0_0_c2d6796740" x="107.661633" y="276.336" style="fill: #0173b2; fill-opacity: 0.4"/>
    </g>
    <g clip-path="url(#pe57cb27cf8)">
     <use xlink:href="#C0_0_c2d6796740" x="105.367847" y="288.432" style="fill: #0173b2; fill-opacity: 0.4"/>
    </g>
    <g clip-path="url(#pe57cb27cf8)">
     <use xlink:href="#C0_0_c2d6796740" x="107.304938" y="276.336" style="fill: #0173b2; fill-opacity: 0.4"/>
    </g>
   </g>
   <g id="PathCollection_2">
    <defs>
     <path id="C1_0_21cd9de54e" d="M 0 2.5 
C 0.663008 2.5 1.29895 2.236584 1.767767 1.767767 
C 2.236584 1.29895 2.5 0.663008 2.5 -0 
C 2.5 -0.663008 2.236584 -1.29895 1.767767 -1.767767 
C 1.29895 -2.236584 0.663008 -2.5 0 -2.5 
C -0.663008 -2.5 -1.29895 -2.236584 -1.767767 -1.767767 
C -2.236584 -1.29895 -2.5 -0.663008 -2.5 0 
C -2.5 0.663008 -2.236584 1.29895 -1.767767 1.767767 
C -1.29895 2.236584 -0.663008 2.5 0 2.5 
z
"/>
    </defs>
    <g clip-path="url(#pe57cb27cf8)">
     <use xlink:href="#C1_0_21cd9de54e" x="167.809576" y="264.24" style="fill: #de8f05; fill-opacity: 0.4"/>
    </g>
    <g clip-path="url(#pe57cb27cf8)">
     <use xlink:href="#C1_0_21cd9de54e" x="176.858298" y="264.24" style="fill: #de8f05; fill-opacity: 0.4"/>
    </g>
    <g clip-path="url(#pe57cb27cf8)">
     <use xlink:href="#C1_0_21cd9de54e" x="168.163926" y="264.24" style="fill: #de8f05; fill-opacity: 0.4"/>
    </g>
    <g clip-path="url(#pe57cb27cf8)">
     <use xlink:href="#C1_0_21cd9de54e" x="176.421793" y="264.24" style="fill: #de8f05; fill-opacity: 0.4"/>
    </g>
    <g clip-path="url(#pe57cb27cf8)">
     <use xlink:href="#C1_0_21cd9de54e" x="173.562695" y="276.336" style="fill: #de8f05; fill-opacity: 0.4"/>
    </g>
    <g clip-path="url(#pe57cb27cf8)">
     <use xlink:href="#C1_0_21cd9de54e" x="172.790564" y="276.336" style="fill: #de8f05; fill-opacity: 0.4"/>
    </g>
    <g clip-path="url(#pe57cb27cf8)">
     <use xlink:href="#C1_0_21cd9de54e" x="168.396049" y="264.24" style="fill: #de8f05; fill-opacity: 0.4"/>
    </g>
    <g clip-path="url(#pe57cb27cf8)">
     <use xlink:href="#C1_0_21cd9de54e" x="183.042039" y="264.24" style="fill: #de8f05; fill-opacity: 0.4"/>
    </g>
    <g clip-path="url(#pe57cb27cf8)">
     <use xlink:href="#C1_0_21cd9de54e" x="168.75952" y="264.24" style="fill: #de8f05; fill-opacity: 0.4"/>
    </g>
    <g clip-path="url(#pe57cb27cf8)">
     <use xlink:href="#C1_0_21cd9de54e" x="171.841546" y="264.24" style="fill: #de8f05; fill-opacity: 0.4"/>
    </g>
    <g clip-path="url(#pe57cb27cf8)">
     <use xlink:href="#C1_0_21cd9de54e" x="167.720669" y="264.24" style="fill: #de8f05; fill-opacity: 0.4"/>
    </g>
    <g clip-path="url(#pe57cb27cf8)">
     <use xlink:href="#C1_0_21cd9de54e" x="178.295725" y="276.336" style="fill: #de8f05; fill-opacity: 0.4"/>
    </g>
    <g clip-path="url(#pe57cb27cf8)">
     <use xlink:href="#C1_0_21cd9de54e" x="175.028044" y="264.24" style="fill: #de8f05; fill-opacity: 0.4"/>
    </g>
    <g clip-path="url(#pe57cb27cf8)">
     <use xlink:href="#C1_0_21cd9de54e" x="177.033724" y="288.432" style="fill: #de8f05; fill-opacity: 0.4"/>
    </g>
    <g clip-path="url(#pe57cb27cf8)">
     <use xlink:href="#C1_0_21cd9de54e" x="171.320627" y="288.432" style="fill: #de8f05; fill-opacity: 0.4"/>
    </g>
    <g clip-path="url(#pe57cb27cf8)">
     <use xlink:href="#C1_0_21cd9de54e" x="174.393634" y="276.336" style="fill: #de8f05; fill-opacity: 0.4"/>
    </g>
    <g clip-path="url(#pe57cb27cf8)">
     <use xlink:href="#C1_0_21cd9de54e" x="181.211531" y="264.24" style="fill: #de8f05; fill-opacity: 0.4"/>
    </g>
    <g clip-path="url(#pe57cb27cf8)">
     <use xlink:href="#C1_0_21cd9de54e" x="183.049453" y="276.336" style="fill: #de8f05; fill-opacity: 0.4"/>
    </g>
    <g clip-path="url(#pe57cb27cf8)">
     <use xlink:href="#C1_0_21cd9de54e" x="174.225399" y="264.24" style="fill: #de8f05; fill-opacity: 0.4"/>
    </g>
    <g clip-path="url(#pe57cb27cf8)">
     <use xlink:href="#C1_0_21cd9de54e" x="179.111715" y="264.24" style="fill: #de8f05; fill-opacity: 0.4"/>
    </g>
    <g clip-path="url(#pe57cb27cf8)">
     <use xlink:href="#C1_0_21cd9de54e" x="174.484274" y="276.336" style="fill: #de8f05; fill-opacity: 0.4"/>
    </g>
    <g clip-path="url(#pe57cb27cf8)">
     <use xlink:href="#C1_0_21cd9de54e" x="183.26466" y="324.72" style="fill: #de8f05; fill-opacity: 0.4"/>
    </g>
    <g clip-path="url(#pe57cb27cf8)">
     <use xlink:href="#C1_0_21cd9de54e" x="176.159392" y="276.336" style="fill: #de8f05; fill-opacity: 0.4"/>
    </g>
   </g>
   <g id="PathCollection_3">
    <defs>
     <path id="C2_0_0802f587d9" d="M 0 2.5 
C 0.663008 2.5 1.29895 2.236584 1.767767 1.767767 
C 2.236584 1.29895 2.5 0.663008 2.5 -0 
C 2.5 -0.663008 2.236584 -1.29895 1.767767 -1.767767 
C 1.29895 -2.236584 0.663008 -2.5 0 -2.5 
C -0.663008 -2.5 -1.29895 -2.236584 -1.767767 -1.767767 
C -2.236584 -1.29895 -2.5 -0.663008 -2.5 0 
C -2.5 0.663008 -2.236584 1.29895 -1.767767 1.767767 
C -1.29895 2.236584 -0.663008 2.5 0 2.5 
z
"/>
    </defs>
    <g clip-path="url(#pe57cb27cf8)">
     <use xlink:href="#C2_0_0802f587d9" x="282.560659" y="276.336" style="fill: #0173b2; fill-opacity: 0.4"/>
    </g>
    <g clip-path="url(#pe57cb27cf8)">
     <use xlink:href="#C2_0_0802f587d9" x="293.861368" y="276.336" style="fill: #0173b2; fill-opacity: 0.4"/>
    </g>
    <g clip-path="url(#pe57cb27cf8)">
     <use xlink:href="#C2_0_0802f587d9" x="280.017744" y="264.24" style="fill: #0173b2; fill-opacity: 0.4"/>
    </g>
    <g clip-path="url(#pe57cb27cf8)">
     <use xlink:href="#C2_0_0802f587d9" x="294.501678" y="276.336" style="fill: #0173b2; fill-opacity: 0.4"/>
    </g>
    <g clip-path="url(#pe57cb27cf8)">
     <use xlink:href="#C2_0_0802f587d9" x="277.308916" y="276.336" style="fill: #0173b2; fill-opacity: 0.4"/>
    </g>
    <g clip-path="url(#pe57cb27cf8)">
     <use xlink:href="#C2_0_0802f587d9" x="278.789765" y="227.952" style="fill: #0173b2; fill-opacity: 0.4"/>
    </g>
    <g clip-path="url(#pe57cb27cf8)">
     <use xlink:href="#C2_0_0802f587d9" x="277.59522" y="240.048" style="fill: #0173b2; fill-opacity: 0.4"/>
    </g>
    <g clip-path="url(#pe57cb27cf8)">
     <use xlink:href="#C2_0_0802f587d9" x="289.21186" y="179.568" style="fill: #0173b2; fill-opacity: 0.4"/>
    </g>
    <g clip-path="url(#pe57cb27cf8)">
     <use xlink:href="#C2_0_0802f587d9" x="290.156897" y="227.952" style="fill: #0173b2; fill-opacity: 0.4"/>
    </g>
    <g clip-path="url(#pe57cb27cf8)">
     <use xlink:href="#C2_0_0802f587d9" x="290.562194" y="276.336" style="fill: #0173b2; fill-opacity: 0.4"/>
    </g>
    <g clip-path="url(#pe57cb27cf8)">
     <use xlink:href="#C2_0_0802f587d9" x="284.147997" y="276.336" style="fill: #0173b2; fill-opacity: 0.4"/>
    </g>
    <g clip-path="url(#pe57cb27cf8)">
     <use xlink:href="#C2_0_0802f587d9" x="288.581156" y="324.72" style="fill: #0173b2; fill-opacity: 0.4"/>
    </g>
    <g clip-path="url(#pe57cb27cf8)">
     <use xlink:href="#C2_0_0802f587d9" x="294.352858" y="276.336" style="fill: #0173b2; fill-opacity: 0.4"/>
    </g>
    <g clip-path="url(#pe57cb27cf8)">
     <use xlink:href="#C2_0_0802f587d9" x="279.422983" y="324.72" style="fill: #0173b2; fill-opacity: 0.4"/>
    </g>
    <g clip-path="url(#pe57cb27cf8)">
     <use xlink:href="#C2_0_0802f587d9" x="286.645562" y="191.664" style="fill: #0173b2; fill-opacity: 0.4"/>
    </g>
    <g clip-path="url(#pe57cb27cf8)">
     <use xlink:href="#C2_0_0802f587d9" x="277.352994" y="227.952" style="fill: #0173b2; fill-opacity: 0.4"/>
    </g>
    <g clip-path="url(#pe57cb27cf8)">
     <use xlink:href="#C2_0_0802f587d9" x="289.709878" y="240.048" style="fill: #0173b2; fill-opacity: 0.4"/>
    </g>
    <g clip-path="url(#pe57cb27cf8)">
     <use xlink:href="#C2_0_0802f587d9" x="290.994772" y="276.336" style="fill: #0173b2; fill-opacity: 0.4"/>
    </g>
    <g clip-path="url(#pe57cb27cf8)">
     <use xlink:href="#C2_0_0802f587d9" x="277.539581" y="276.336" style="fill: #0173b2; fill-opacity: 0.4"/>
    </g>
    <g clip-path="url(#pe57cb27cf8)">
     <use xlink:href="#C2_0_0802f587d9" x="292.16662" y="215.856" style="fill: #0173b2; fill-opacity: 0.4"/>
    </g>
    <g clip-path="url(#pe57cb27cf8)">
     <use xlink:href="#C2_0_0802f587d9" x="289.367406" y="264.24" style="fill: #0173b2; fill-opacity: 0.4"/>
    </g>
    <g clip-path="url(#pe57cb27cf8)">
     <use xlink:href="#C2_0_0802f587d9" x="291.024276" y="264.24" style="fill: #0173b2; fill-opacity: 0.4"/>
    </g>
    <g clip-path="url(#pe57cb27cf8)">
     <use xlink:href="#C2_0_0802f587d9" x="285.56726" y="276.336" style="fill: #0173b2; fill-opacity: 0.4"/>
    </g>
   </g>
   <g id="PathCollection_4">
    <defs>
     <path id="C3_0_e98cec6ecf" d="M 0 2.5 
C 0.663008 2.5 1.29895 2.236584 1.767767 1.767767 
C 2.236584 1.29895 2.5 0.663008 2.5 -0 
C 2.5 -0.663008 2.236584 -1.29895 1.767767 -1.767767 
C 1.29895 -2.236584 0.663008 -2.5 0 -2.5 
C -0.663008 -2.5 -1.29895 -2.236584 -1.767767 -1.767767 
C -2.236584 -1.29895 -2.5 -0.663008 -2.5 0 
C -2.5 0.663008 -2.236584 1.29895 -1.767767 1.767767 
C -1.29895 2.236584 -0.663008 2.5 0 2.5 
z
"/>
    </defs>
    <g clip-path="url(#pe57cb27cf8)">
     <use xlink:href="#C3_0_e98cec6ecf" x="360.606155" y="119.088" style="fill: #de8f05; fill-opacity: 0.4"/>
    </g>
    <g clip-path="url(#pe57cb27cf8)">
     <use xlink:href="#C3_0_e98cec6ecf" x="366.024314" y="191.664" style="fill: #de8f05; fill-opacity: 0.4"/>
    </g>
    <g clip-path="url(#pe57cb27cf8)">
     <use xlink:href="#C3_0_e98cec6ecf" x="353.303667" y="143.28" style="fill: #de8f05; fill-opacity: 0.4"/>
    </g>
    <g clip-path="url(#pe57cb27cf8)">
     <use xlink:href="#C3_0_e98cec6ecf" x="366.406526" y="167.472" style="fill: #de8f05; fill-opacity: 0.4"/>
    </g>
    <g clip-path="url(#pe57cb27cf8)">
     <use xlink:href="#C3_0_e98cec6ecf" x="361.526093" y="143.28" style="fill: #de8f05; fill-opacity: 0.4"/>
    </g>
    <g clip-path="url(#pe57cb27cf8)">
     <use xlink:href="#C3_0_e98cec6ecf" x="353.596388" y="131.184" style="fill: #de8f05; fill-opacity: 0.4"/>
    </g>
    <g clip-path="url(#pe57cb27cf8)">
     <use xlink:href="#C3_0_e98cec6ecf" x="362.781255" y="131.184" style="fill: #de8f05; fill-opacity: 0.4"/>
    </g>
    <g clip-path="url(#pe57cb27cf8)">
     <use xlink:href="#C3_0_e98cec6ecf" x="359.91858" y="143.28" style="fill: #de8f05; fill-opacity: 0.4"/>
    </g>
    <g clip-path="url(#pe57cb27cf8)">
     <use xlink:href="#C3_0_e98cec6ecf" x="357.358087" y="155.376" style="fill: #de8f05; fill-opacity: 0.4"/>
    </g>
    <g clip-path="url(#pe57cb27cf8)">
     <use xlink:href="#C3_0_e98cec6ecf" x="366.707747" y="179.568" style="fill: #de8f05; fill-opacity: 0.4"/>
    </g>
    <g clip-path="url(#pe57cb27cf8)">
     <use xlink:href="#C3_0_e98cec6ecf" x="368.086815" y="131.184" style="fill: #de8f05; fill-opacity: 0.4"/>
    </g>
    <g clip-path="url(#pe57cb27cf8)">
     <use xlink:href="#C3_0_e98cec6ecf" x="359.018086" y="131.184" style="fill: #de8f05; fill-opacity: 0.4"/>
    </g>
    <g clip-path="url(#pe57cb27cf8)">
     <use xlink:href="#C3_0_e98cec6ecf" x="356.916054" y="179.568" style="fill: #de8f05; fill-opacity: 0.4"/>
    </g>
    <g clip-path="url(#pe57cb27cf8)">
     <use xlink:href="#C3_0_e98cec6ecf" x="351.557687" y="155.376" style="fill: #de8f05; fill-opacity: 0.4"/>
    </g>
    <g clip-path="url(#pe57cb27cf8)">
     <use xlink:href="#C3_0_e98cec6ecf" x="356.616444" y="119.088" style="fill: #de8f05; fill-opacity: 0.4"/>
    </g>
    <g clip-path="url(#pe57cb27cf8)">
     <use xlink:href="#C3_0_e98cec6ecf" x="367.642376" y="106.992" style="fill: #de8f05; fill-opacity: 0.4"/>
    </g>
    <g clip-path="url(#pe57cb27cf8)">
     <use xlink:href="#C3_0_e98cec6ecf" x="360.47319" y="119.088" style="fill: #de8f05; fill-opacity: 0.4"/>
    </g>
    <g clip-path="url(#pe57cb27cf8)">
     <use xlink:href="#C3_0_e98cec6ecf" x="353.174949" y="106.992" style="fill: #de8f05; fill-opacity: 0.4"/>
    </g>
    <g clip-path="url(#pe57cb27cf8)">
     <use xlink:href="#C3_0_e98cec6ecf" x="356.704075" y="191.664" style="fill: #de8f05; fill-opacity: 0.4"/>
    </g>
    <g clip-path="url(#pe57cb27cf8)">
     <use xlink:href="#C3_0_e98cec6ecf" x="364.165503" y="131.184" style="fill: #de8f05; fill-opacity: 0.4"/>
    </g>
    <g clip-path="url(#pe57cb27cf8)">
     <use xlink:href="#C3_0_e98cec6ecf" x="366.076498" y="179.568" style="fill: #de8f05; fill-opacity: 0.4"/>
    </g>
    <g clip-path="url(#pe57cb27cf8)">
     <use xlink:href="#C3_0_e98cec6ecf" x="360.846432" y="324.72" style="fill: #de8f05; fill-opacity: 0.4"/>
    </g>
    <g clip-path="url(#pe57cb27cf8)">
     <use xlink:href="#C3_0_e98cec6ecf" x="356.217801" y="82.8" style="fill: #de8f05; fill-opacity: 0.4"/>
    </g>
   </g>
   <g id="PathCollection_5">
    <defs>
     <path id="C4_0_aa96017d3b" d="M 0 2.5 
C 0.663008 2.5 1.29895 2.236584 1.767767 1.767767 
C 2.236584 1.29895 2.5 0.663008 2.5 -0 
C 2.5 -0.663008 2.236584 -1.29895 1.767767 -1.767767 
C 1.29895 -2.236584 0.663008 -2.5 0 -2.5 
C -0.663008 -2.5 -1.29895 -2.236584 -1.767767 -1.767767 
C -2.236584 -1.29895 -2.5 -0.663008 -2.5 0 
C -2.5 0.663008 -2.236584 1.29895 -1.767767 1.767767 
C -1.29895 2.236584 -0.663008 2.5 0 2.5 
z
"/>
    </defs>
    <g clip-path="url(#pe57cb27cf8)">
     <use xlink:href="#C4_0_aa96017d3b" x="473.179318" y="119.088" style="fill: #0173b2; fill-opacity: 0.4"/>
    </g>
    <g clip-path="url(#pe57cb27cf8)">
     <use xlink:href="#C4_0_aa96017d3b" x="480.978991" y="94.896" style="fill: #0173b2; fill-opacity: 0.4"/>
    </g>
    <g clip-path="url(#pe57cb27cf8)">
     <use xlink:href="#C4_0_aa96017d3b" x="465.290444" y="82.8" style="fill: #0173b2; fill-opacity: 0.4"/>
    </g>
    <g clip-path="url(#pe57cb27cf8)">
     <use xlink:href="#C4_0_aa96017d3b" x="463.302621" y="58.608" style="fill: #0173b2; fill-opacity: 0.4"/>
    </g>
    <g clip-path="url(#pe57cb27cf8)">
     <use xlink:href="#C4_0_aa96017d3b" x="474.81608" y="131.184" style="fill: #0173b2; fill-opacity: 0.4"/>
    </g>
    <g clip-path="url(#pe57cb27cf8)">
     <use xlink:href="#C4_0_aa96017d3b" x="472.518619" y="94.896" style="fill: #0173b2; fill-opacity: 0.4"/>
    </g>
    <g clip-path="url(#pe57cb27cf8)">
     <use xlink:href="#C4_0_aa96017d3b" x="474.937187" y="34.416" style="fill: #0173b2; fill-opacity: 0.4"/>
    </g>
    <g clip-path="url(#pe57cb27cf8)">
     <use xlink:href="#C4_0_aa96017d3b" x="478.722002" y="94.896" style="fill: #0173b2; fill-opacity: 0.4"/>
    </g>
    <g clip-path="url(#pe57cb27cf8)">
     <use xlink:href="#C4_0_aa96017d3b" x="465.12071" y="131.184" style="fill: #0173b2; fill-opacity: 0.4"/>
    </g>
    <g clip-path="url(#pe57cb27cf8)">
     <use xlink:href="#C4_0_aa96017d3b" x="476.866129" y="106.992" style="fill: #0173b2; fill-opacity: 0.4"/>
    </g>
    <g clip-path="url(#pe57cb27cf8)">
     <use xlink:href="#C4_0_aa96017d3b" x="476.186472" y="94.896" style="fill: #0173b2; fill-opacity: 0.4"/>
    </g>
    <g clip-path="url(#pe57cb27cf8)">
     <use xlink:href="#C4_0_aa96017d3b" x="478.658806" y="70.704" style="fill: #0173b2; fill-opacity: 0.4"/>
    </g>
    <g clip-path="url(#pe57cb27cf8)">
     <use xlink:href="#C4_0_aa96017d3b" x="476.739441" y="46.512" style="fill: #0173b2; fill-opacity: 0.4"/>
    </g>
    <g clip-path="url(#pe57cb27cf8)">
     <use xlink:href="#C4_0_aa96017d3b" x="465.134943" y="131.184" style="fill: #0173b2; fill-opacity: 0.4"/>
    </g>
    <g clip-path="url(#pe57cb27cf8)">
     <use xlink:href="#C4_0_aa96017d3b" x="462.430775" y="131.184" style="fill: #0173b2; fill-opacity: 0.4"/>
    </g>
    <g clip-path="url(#pe57cb27cf8)">
     <use xlink:href="#C4_0_aa96017d3b" x="476.758526" y="119.088" style="fill: #0173b2; fill-opacity: 0.4"/>
    </g>
    <g clip-path="url(#pe57cb27cf8)">
     <use xlink:href="#C4_0_aa96017d3b" x="472.414033" y="70.704" style="fill: #0173b2; fill-opacity: 0.4"/>
    </g>
    <g clip-path="url(#pe57cb27cf8)">
     <use xlink:href="#C4_0_aa96017d3b" x="462.700962" y="82.8" style="fill: #0173b2; fill-opacity: 0.4"/>
    </g>
    <g clip-path="url(#pe57cb27cf8)">
     <use xlink:href="#C4_0_aa96017d3b" x="470.372298" y="106.992" style="fill: #0173b2; fill-opacity: 0.4"/>
    </g>
    <g clip-path="url(#pe57cb27cf8)">
     <use xlink:href="#C4_0_aa96017d3b" x="480.390788" y="46.512" style="fill: #0173b2; fill-opacity: 0.4"/>
    </g>
    <g clip-path="url(#pe57cb27cf8)">
     <use xlink:href="#C4_0_aa96017d3b" x="473.152702" y="94.896" style="fill: #0173b2; fill-opacity: 0.4"/>
    </g>
    <g clip-path="url(#pe57cb27cf8)">
     <use xlink:href="#C4_0_aa96017d3b" x="471.756664" y="143.28" style="fill: #0173b2; fill-opacity: 0.4"/>
    </g>
    <g clip-path="url(#pe57cb27cf8)">
     <use xlink:href="#C4_0_aa96017d3b" x="475.722427" y="131.184" style="fill: #0173b2; fill-opacity: 0.4"/>
    </g>
   </g>
   <g id="PathCollection_6">
    <defs>
     <path id="C5_0_2e27bce97a" d="M 0 2.5 
C 0.663008 2.5 1.29895 2.236584 1.767767 1.767767 
C 2.236584 1.29895 2.5 0.663008 2.5 -0 
C 2.5 -0.663008 2.236584 -1.29895 1.767767 -1.767767 
C 1.29895 -2.236584 0.663008 -2.5 0 -2.5 
C -0.663008 -2.5 -1.29895 -2.236584 -1.767767 -1.767767 
C -2.236584 -1.29895 -2.5 -0.663008 -2.5 0 
C -2.5 0.663008 -2.236584 1.29895 -1.767767 1.767767 
C -1.29895 2.236584 -0.663008 2.5 0 2.5 
z
"/>
    </defs>
    <g clip-path="url(#pe57cb27cf8)">
     <use xlink:href="#C5_0_2e27bce97a" x="537.331592" y="82.8" style="fill: #de8f05; fill-opacity: 0.4"/>
    </g>
    <g clip-path="url(#pe57cb27cf8)">
     <use xlink:href="#C5_0_2e27bce97a" x="552.825484" y="70.704" style="fill: #de8f05; fill-opacity: 0.4"/>
    </g>
    <g clip-path="url(#pe57cb27cf8)">
     <use xlink:href="#C5_0_2e27bce97a" x="546.425259" y="46.512" style="fill: #de8f05; fill-opacity: 0.4"/>
    </g>
    <g clip-path="url(#pe57cb27cf8)">
     <use xlink:href="#C5_0_2e27bce97a" x="541.863777" y="34.416" style="fill: #de8f05; fill-opacity: 0.4"/>
    </g>
    <g clip-path="url(#pe57cb27cf8)">
     <use xlink:href="#C5_0_2e27bce97a" x="553.274753" y="58.608" style="fill: #de8f05; fill-opacity: 0.4"/>
    </g>
    <g clip-path="url(#pe57cb27cf8)">
     <use xlink:href="#C5_0_2e27bce97a" x="555.263829" y="94.896" style="fill: #de8f05; fill-opacity: 0.4"/>
    </g>
    <g clip-path="url(#pe57cb27cf8)">
     <use xlink:href="#C5_0_2e27bce97a" x="546.497239" y="34.416" style="fill: #de8f05; fill-opacity: 0.4"/>
    </g>
    <g clip-path="url(#pe57cb27cf8)">
     <use xlink:href="#C5_0_2e27bce97a" x="536.902236" y="324.72" style="fill: #de8f05; fill-opacity: 0.4"/>
    </g>
    <g clip-path="url(#pe57cb27cf8)">
     <use xlink:href="#C5_0_2e27bce97a" x="545.69948" y="82.8" style="fill: #de8f05; fill-opacity: 0.4"/>
    </g>
    <g clip-path="url(#pe57cb27cf8)">
     <use xlink:href="#C5_0_2e27bce97a" x="542.677766" y="82.8" style="fill: #de8f05; fill-opacity: 0.4"/>
    </g>
    <g clip-path="url(#pe57cb27cf8)">
     <use xlink:href="#C5_0_2e27bce97a" x="550.91735" y="22.32" style="fill: #de8f05; fill-opacity: 0.4"/>
    </g>
    <g clip-path="url(#pe57cb27cf8)">
     <use xlink:href="#C5_0_2e27bce97a" x="542.215469" y="46.512" style="fill: #de8f05; fill-opacity: 0.4"/>
    </g>
    <g clip-path="url(#pe57cb27cf8)">
     <use xlink:href="#C5_0_2e27bce97a" x="544.07693" y="324.72" style="fill: #de8f05; fill-opacity: 0.4"/>
    </g>
    <g clip-path="url(#pe57cb27cf8)">
     <use xlink:href="#C5_0_2e27bce97a" x="550.639038" y="179.568" style="fill: #de8f05; fill-opacity: 0.4"/>
    </g>
    <g clip-path="url(#pe57cb27cf8)">
     <use xlink:href="#C5_0_2e27bce97a" x="553.339848" y="167.472" style="fill: #de8f05; fill-opacity: 0.4"/>
    </g>
    <g clip-path="url(#pe57cb27cf8)">
     <use xlink:href="#C5_0_2e27bce97a" x="548.959968" y="34.416" style="fill: #de8f05; fill-opacity: 0.4"/>
    </g>
    <g clip-path="url(#pe57cb27cf8)">
     <use xlink:href="#C5_0_2e27bce97a" x="555.217274" y="22.32" style="fill: #de8f05; fill-opacity: 0.4"/>
    </g>
    <g clip-path="url(#pe57cb27cf8)">
     <use xlink:href="#C5_0_2e27bce97a" x="552.549438" y="22.32" style="fill: #de8f05; fill-opacity: 0.4"/>
    </g>
    <g clip-path="url(#pe57cb27cf8)">
     <use xlink:href="#C5_0_2e27bce97a" x="548.062201" y="58.608" style="fill: #de8f05; fill-opacity: 0.4"/>
    </g>
    <g clip-path="url(#pe57cb27cf8)">
     <use xlink:href="#C5_0_2e27bce97a" x="543.815521" y="46.512" style="fill: #de8f05; fill-opacity: 0.4"/>
    </g>
    <g clip-path="url(#pe57cb27cf8)">
     <use xlink:href="#C5_0_2e27bce97a" x="539.966569" y="46.512" style="fill: #de8f05; fill-opacity: 0.4"/>
    </g>
    <g clip-path="url(#pe57cb27cf8)">
     <use xlink:href="#C5_0_2e27bce97a" x="553.448306" y="324.72" style="fill: #de8f05; fill-opacity: 0.4"/>
    </g>
    <g clip-path="url(#pe57cb27cf8)">
     <use xlink:href="#C5_0_2e27bce97a" x="549.786272" y="22.32" style="fill: #de8f05; fill-opacity: 0.4"/>
    </g>
   </g>
   <g id="legend_1">
    <g id="patch_7">
     <path d="M 51.608438 63.594063 
L 108.81875 63.594063 
Q 111.01875 63.594063 111.01875 61.394063 
L 111.01875 14.9 
Q 111.01875 12.7 108.81875 12.7 
L 51.608438 12.7 
Q 49.408437 12.7 49.408437 14.9 
L 49.408437 61.394063 
Q 49.408437 63.594063 51.608438 63.594063 
z
" style="fill: #ffffff; opacity: 0.8; stroke: #cccccc; stroke-linejoin: miter"/>
    </g>
    <g id="text_12">
     <!-- time -->
     <g style="fill: #262626" transform="translate(68.879219 25.689375) scale(0.12 -0.12)">
      <use xlink:href="#ArialMT-74"/>
      <use xlink:href="#ArialMT-69" transform="translate(27.783203 0)"/>
      <use xlink:href="#ArialMT-6d" transform="translate(50 0)"/>
      <use xlink:href="#ArialMT-65" transform="translate(133.300781 0)"/>
     </g>
    </g>
    <g id="line2d_11">
     <path d="M 53.808437 37.597969 
L 64.808437 37.597969 
L 75.808437 37.597969 
" style="fill: none; stroke: #0173b2; stroke-width: 2.7; stroke-linecap: round"/>
     <g>
      <use xlink:href="#mac667c8113" x="64.808437" y="37.597969" style="fill: #0173b2; stroke: #0173b2; stroke-width: 2.025"/>
     </g>
    </g>
    <g id="text_13">
     <!-- Pre -->
     <g style="fill: #262626" transform="translate(84.608437 41.447969) scale(0.11 -0.11)">
      <defs>
       <path id="ArialMT-50" d="M 494 0 
L 494 4581 
L 2222 4581 
Q 2678 4581 2919 4538 
Q 3256 4481 3484 4323 
Q 3713 4166 3852 3881 
Q 3991 3597 3991 3256 
Q 3991 2672 3619 2267 
Q 3247 1863 2275 1863 
L 1100 1863 
L 1100 0 
L 494 0 
z
M 1100 2403 
L 2284 2403 
Q 2872 2403 3119 2622 
Q 3366 2841 3366 3238 
Q 3366 3525 3220 3729 
Q 3075 3934 2838 4000 
Q 2684 4041 2272 4041 
L 1100 4041 
L 1100 2403 
z
" transform="scale(0.015625)"/>
      </defs>
      <use xlink:href="#ArialMT-50"/>
      <use xlink:href="#ArialMT-72" transform="translate(66.699219 0)"/>
      <use xlink:href="#ArialMT-65" transform="translate(100 0)"/>
     </g>
    </g>
    <g id="line2d_12">
     <path d="M 53.808437 53.157812 
L 64.808437 53.157812 
L 75.808437 53.157812 
" style="fill: none; stroke: #de8f05; stroke-width: 2.7; stroke-linecap: round"/>
     <g>
      <use xlink:href="#mc6ab0705f8" x="64.808437" y="53.157812" style="fill: #de8f05; stroke: #de8f05; stroke-width: 2.025"/>
     </g>
    </g>
    <g id="text_14">
     <!-- Post -->
     <g style="fill: #262626" transform="translate(84.608437 57.007812) scale(0.11 -0.11)">
      <use xlink:href="#ArialMT-50"/>
      <use xlink:href="#ArialMT-6f" transform="translate(66.699219 0)"/>
      <use xlink:href="#ArialMT-73" transform="translate(122.314453 0)"/>
      <use xlink:href="#ArialMT-74" transform="translate(172.314453 0)"/>
     </g>
    </g>
   </g>
  </g>
 </g>
 <defs>
  <clipPath id="pe57cb27cf8">
   <rect x="43.908437" y="7.2" width="558" height="332.64"/>
  </clipPath>
 </defs>
</svg>
